<svg width="1920" height="1080" viewBox="0 0 1920 1080" fill="none" xmlns="http://www.w3.org/2000/svg">
<rect width="1920" height="1080" fill="#949494"/>
<path d="M184 260.4C179.2 260.4 174.067 259.267 168.6 257C163.267 254.6 158.333 251.333 153.8 247.2H153.2L151.8 258H138.6V115.6H155V154.4L154.4 173.2H155C159.4 168.667 164.467 165.067 170.2 162.4C176.067 159.733 181.867 158.4 187.6 158.4C196.4 158.4 203.8 160.467 209.8 164.6C215.8 168.6 220.333 174.333 223.4 181.8C226.467 189.133 228 197.8 228 207.8C228 218.867 225.933 228.333 221.8 236.2C217.8 244.067 212.467 250.067 205.8 254.2C199.133 258.333 191.867 260.4 184 260.4ZM181.4 246.6C187 246.6 192 245.067 196.4 242C200.933 238.933 204.467 234.533 207 228.8C209.667 222.933 211 216 211 208C211 200.933 210.067 194.733 208.2 189.4C206.333 183.933 203.4 179.733 199.4 176.8C195.4 173.733 190.133 172.2 183.6 172.2C179.2 172.2 174.533 173.4 169.6 175.8C164.8 178.067 159.933 181.733 155 186.8V235.2C159.667 239.333 164.333 242.267 169 244C173.8 245.733 177.933 246.6 181.4 246.6ZM289.122 260.4C283.122 260.4 277.589 259.333 272.522 257.2C267.455 254.933 263.455 251.733 260.522 247.6C257.589 243.467 256.122 238.533 256.122 232.8C256.122 221.867 261.589 213.6 272.522 208C283.455 202.267 301.455 198.4 326.522 196.4C326.389 192 325.455 187.933 323.722 184.2C322.122 180.467 319.455 177.533 315.722 175.4C311.989 173.133 306.989 172 300.722 172C296.589 172 292.455 172.6 288.322 173.8C284.322 174.867 280.455 176.333 276.722 178.2C273.122 179.933 269.789 181.733 266.722 183.6L260.322 172.4C263.522 170.267 267.389 168.133 271.922 166C276.589 163.733 281.589 161.933 286.922 160.6C292.255 159.133 297.789 158.4 303.522 158.4C312.455 158.4 319.789 160.067 325.522 163.4C331.389 166.733 335.722 171.4 338.522 177.4C341.455 183.267 342.922 190.267 342.922 198.4V258H329.522L328.122 244.8H327.522C322.189 249.067 316.189 252.733 309.522 255.8C302.855 258.867 296.055 260.4 289.122 260.4ZM293.522 247.2C299.122 247.2 304.655 245.933 310.122 243.4C315.589 240.867 321.055 237.333 326.522 232.8V207.2C312.655 208.4 301.722 210.067 293.722 212.2C285.855 214.333 280.255 217.067 276.922 220.4C273.722 223.6 272.122 227.333 272.122 231.6C272.122 235.2 273.122 238.2 275.122 240.6C277.122 242.867 279.722 244.533 282.922 245.6C286.255 246.667 289.789 247.2 293.522 247.2ZM389.044 258V160.8H402.644L404.044 183.8H404.644C409.71 175.933 415.977 169.733 423.444 165.2C430.91 160.667 439.11 158.4 448.044 158.4C451.644 158.4 454.977 158.733 458.044 159.4C461.244 159.933 464.31 160.933 467.244 162.4L463.444 176.6C460.11 175.4 457.244 174.533 454.844 174C452.444 173.467 449.31 173.2 445.444 173.2C438.11 173.2 431.044 175.333 424.244 179.6C417.577 183.733 411.31 190.867 405.444 201V258H389.044ZM545.766 260.4C536.032 260.4 527.166 258.4 519.166 254.4C511.299 250.4 505.032 244.6 500.366 237C495.699 229.267 493.366 220 493.366 209.2C493.366 198.667 495.699 189.6 500.366 182C505.032 174.4 511.099 168.6 518.566 164.6C526.166 160.467 534.299 158.4 542.966 158.4C552.299 158.4 560.232 160.333 566.766 164.2C573.432 167.933 578.499 173.2 581.966 180C585.566 186.8 587.366 194.8 587.366 204C587.366 205.867 587.299 207.667 587.166 209.4C587.032 211.133 586.832 212.667 586.566 214H504.366V201.2H576.766L572.566 205.8C572.566 194.333 569.899 185.733 564.566 180C559.366 174.267 552.299 171.4 543.366 171.4C537.366 171.4 531.766 172.867 526.566 175.8C521.499 178.733 517.432 183 514.366 188.6C511.299 194.2 509.766 201.067 509.766 209.2C509.766 217.6 511.432 224.6 514.766 230.2C518.099 235.8 522.632 240.067 528.366 243C534.099 245.8 540.566 247.2 547.766 247.2C553.632 247.2 558.899 246.4 563.566 244.8C568.366 243.067 572.966 240.8 577.366 238L583.366 248.8C578.566 252 573.032 254.733 566.766 257C560.632 259.267 553.632 260.4 545.766 260.4ZM680.888 260.4C670.621 260.4 662.754 257.467 657.288 251.6C651.821 245.6 649.088 236.867 649.088 225.4V129H615.888V115.6H665.488V226.6C665.488 233.667 667.221 238.8 670.688 242C674.154 245.2 678.754 246.8 684.488 246.8C687.288 246.8 690.154 246.467 693.088 245.8C696.021 245 699.288 243.8 702.888 242.2L707.088 254.6C702.688 256.2 698.554 257.533 694.688 258.6C690.821 259.8 686.221 260.4 680.888 260.4ZM745.809 299.8C743.676 299.8 741.409 299.6 739.009 299.2C736.743 298.8 734.743 298.333 733.009 297.8L736.409 284.8C737.743 285.2 739.143 285.533 740.609 285.8C742.209 286.067 743.743 286.2 745.209 286.2C752.009 286.2 757.543 284.2 761.809 280.2C766.076 276.333 769.409 271.4 771.809 265.4L774.809 258.2L729.409 160.8H746.009L769.809 214.6C771.676 218.867 773.609 223.467 775.609 228.4C777.743 233.2 779.809 238 781.809 242.8H782.609C784.343 238.133 786.076 233.4 787.809 228.6C789.676 223.667 791.409 219 793.009 214.6L814.209 160.8H829.809L787.009 266C784.609 272.4 781.609 278.133 778.009 283.2C774.409 288.4 769.943 292.467 764.609 295.4C759.409 298.333 753.143 299.8 745.809 299.8ZM198.8 440.4C189.333 440.4 181.867 438.733 176.4 435.4C170.933 431.933 167 427.2 164.6 421.2C162.333 415.2 161.2 408.2 161.2 400.2V354.2H133.8V341.8L161.8 340.8L164 309.6H177.6V340.8H225.4V354.2H177.6V400.4C177.6 406.133 178.333 411 179.8 415C181.267 419 183.8 422 187.4 424C191 426 195.933 427 202.2 427C206.867 427 211.067 426.6 214.8 425.8C218.533 425 222.133 423.933 225.6 422.6L229.2 434.6C224.8 436.2 220.133 437.533 215.2 438.6C210.4 439.8 204.933 440.4 198.8 440.4ZM258.522 438V295.6H274.922V334.4L273.922 357.4H274.522C279.455 352.067 284.855 347.6 290.722 344C296.589 340.267 303.322 338.4 310.922 338.4C322.389 338.4 330.855 341.733 336.322 348.4C341.789 355.067 344.522 364.8 344.522 377.6V438H328.122V379.8C328.122 370.6 326.389 363.8 322.922 359.4C319.455 354.867 313.722 352.6 305.722 352.6C299.989 352.6 294.855 354.067 290.322 357C285.789 359.933 280.655 364.333 274.922 370.2V438H258.522ZM425.844 440.4C416.11 440.4 407.244 438.4 399.244 434.4C391.377 430.4 385.11 424.6 380.444 417C375.777 409.267 373.444 400 373.444 389.2C373.444 378.667 375.777 369.6 380.444 362C385.11 354.4 391.177 348.6 398.644 344.6C406.244 340.467 414.377 338.4 423.044 338.4C432.377 338.4 440.31 340.333 446.844 344.2C453.51 347.933 458.577 353.2 462.044 360C465.644 366.8 467.444 374.8 467.444 384C467.444 385.867 467.377 387.667 467.244 389.4C467.11 391.133 466.91 392.667 466.644 394H384.444V381.2H456.844L452.644 385.8C452.644 374.333 449.977 365.733 444.644 360C439.444 354.267 432.377 351.4 423.444 351.4C417.444 351.4 411.844 352.867 406.644 355.8C401.577 358.733 397.51 363 394.444 368.6C391.377 374.2 389.844 381.067 389.844 389.2C389.844 397.6 391.51 404.6 394.844 410.2C398.177 415.8 402.71 420.067 408.444 423C414.177 425.8 420.644 427.2 427.844 427.2C433.71 427.2 438.977 426.4 443.644 424.8C448.444 423.067 453.044 420.8 457.444 418L463.444 428.8C458.644 432 453.11 434.733 446.844 437C440.71 439.267 433.71 440.4 425.844 440.4ZM508.966 438V340.8H522.566L523.966 363.8H524.566C529.632 355.933 535.899 349.733 543.366 345.2C550.832 340.667 559.032 338.4 567.966 338.4C571.566 338.4 574.899 338.733 577.966 339.4C581.166 339.933 584.232 340.933 587.166 342.4L583.366 356.6C580.032 355.4 577.166 354.533 574.766 354C572.366 353.467 569.232 353.2 565.366 353.2C558.032 353.2 550.966 355.333 544.166 359.6C537.499 363.733 531.232 370.867 525.366 381V438H508.966ZM665.688 440.4C655.954 440.4 647.088 438.4 639.088 434.4C631.221 430.4 624.954 424.6 620.288 417C615.621 409.267 613.288 400 613.288 389.2C613.288 378.667 615.621 369.6 620.288 362C624.954 354.4 631.021 348.6 638.488 344.6C646.088 340.467 654.221 338.4 662.888 338.4C672.221 338.4 680.154 340.333 686.688 344.2C693.354 347.933 698.421 353.2 701.888 360C705.488 366.8 707.288 374.8 707.288 384C707.288 385.867 707.221 387.667 707.088 389.4C706.954 391.133 706.754 392.667 706.488 394H624.288V381.2H696.688L692.488 385.8C692.488 374.333 689.821 365.733 684.488 360C679.288 354.267 672.221 351.4 663.288 351.4C657.288 351.4 651.688 352.867 646.488 355.8C641.421 358.733 637.354 363 634.288 368.6C631.221 374.2 629.688 381.067 629.688 389.2C629.688 397.6 631.354 404.6 634.688 410.2C638.021 415.8 642.554 420.067 648.288 423C654.021 425.8 660.488 427.2 667.688 427.2C673.554 427.2 678.821 426.4 683.488 424.8C688.288 423.067 692.888 420.8 697.288 418L703.288 428.8C698.488 432 692.954 434.733 686.688 437C680.554 439.267 673.554 440.4 665.688 440.4ZM169.2 620.4C157.6 620.4 149.067 617.067 143.6 610.4C138.133 603.733 135.4 594 135.4 581.2V520.8H152V579C152 588.2 153.667 595.067 157 599.6C160.467 604 166.267 606.2 174.4 606.2C180 606.2 185.067 604.8 189.6 602C194.267 599.067 199.267 594.467 204.6 588.2V520.8H221V618H207.6L206.2 601H205.4C200.467 606.6 195.067 611.267 189.2 615C183.333 618.6 176.667 620.4 169.2 620.4ZM303.122 618V534.2H257.922V520.8H319.522V618H303.122ZM309.522 500.4C305.789 500.4 302.655 499.267 300.122 497C297.589 494.6 296.322 491.467 296.322 487.6C296.322 483.733 297.589 480.667 300.122 478.4C302.655 476 305.789 474.8 309.522 474.8C313.255 474.8 316.389 476 318.922 478.4C321.455 480.667 322.722 483.733 322.722 487.6C322.722 491.467 321.455 494.6 318.922 497C316.389 499.267 313.255 500.4 309.522 500.4Z" fill="white"/>
<circle cx="1682" cy="879" r="92" fill="white"/>
<path d="M1663.7 910V903.2H1682.1V856.2H1667.8V850.9C1670.33 850.567 1672.57 850.167 1674.5 849.7C1676.43 849.233 1678.2 848.733 1679.8 848.2C1681.4 847.6 1682.87 846.933 1684.2 846.2H1690.3V903.2H1707V910H1663.7Z" fill="#CACACA"/>
</svg>
