<svg width="1920" height="1080" viewBox="0 0 1920 1080" fill="none" xmlns="http://www.w3.org/2000/svg">
<rect width="1920" height="1080" fill="white"/>
<path d="M171.8 249.4C162.333 249.4 154.867 247.733 149.4 244.4C143.933 240.933 140 236.2 137.6 230.2C135.333 224.2 134.2 217.2 134.2 209.2V163.2H106.8V150.8L134.8 149.8L137 118.6H150.6V149.8H198.4V163.2H150.6V209.4C150.6 215.133 151.333 220 152.8 224C154.267 228 156.8 231 160.4 233C164 235 168.933 236 175.2 236C179.867 236 184.067 235.6 187.8 234.8C191.533 234 195.133 232.933 198.6 231.6L202.2 243.6C197.8 245.2 193.133 246.533 188.2 247.6C183.4 248.8 177.933 249.4 171.8 249.4ZM231.522 247V104.6H247.922V143.4L246.922 166.4H247.522C252.455 161.067 257.855 156.6 263.722 153C269.589 149.267 276.322 147.4 283.922 147.4C295.389 147.4 303.855 150.733 309.322 157.4C314.789 164.067 317.522 173.8 317.522 186.6V247H301.122V188.8C301.122 179.6 299.389 172.8 295.922 168.4C292.455 163.867 286.722 161.6 278.722 161.6C272.989 161.6 267.855 163.067 263.322 166C258.789 168.933 253.655 173.333 247.922 179.2V247H231.522ZM398.844 249.4C389.11 249.4 380.244 247.4 372.244 243.4C364.377 239.4 358.11 233.6 353.444 226C348.777 218.267 346.444 209 346.444 198.2C346.444 187.667 348.777 178.6 353.444 171C358.11 163.4 364.177 157.6 371.644 153.6C379.244 149.467 387.377 147.4 396.044 147.4C405.377 147.4 413.31 149.333 419.844 153.2C426.51 156.933 431.577 162.2 435.044 169C438.644 175.8 440.444 183.8 440.444 193C440.444 194.867 440.377 196.667 440.244 198.4C440.11 200.133 439.91 201.667 439.644 203H357.444V190.2H429.844L425.644 194.8C425.644 183.333 422.977 174.733 417.644 169C412.444 163.267 405.377 160.4 396.444 160.4C390.444 160.4 384.844 161.867 379.644 164.8C374.577 167.733 370.51 172 367.444 177.6C364.377 183.2 362.844 190.067 362.844 198.2C362.844 206.6 364.51 213.6 367.844 219.2C371.177 224.8 375.71 229.067 381.444 232C387.177 234.8 393.644 236.2 400.844 236.2C406.71 236.2 411.977 235.4 416.644 233.8C421.444 232.067 426.044 229.8 430.444 227L436.444 237.8C431.644 241 426.11 243.733 419.844 246C413.71 248.267 406.71 249.4 398.844 249.4ZM171.8 429.4C162.333 429.4 154.867 427.733 149.4 424.4C143.933 420.933 140 416.2 137.6 410.2C135.333 404.2 134.2 397.2 134.2 389.2V343.2H106.8V330.8L134.8 329.8L137 298.6H150.6V329.8H198.4V343.2H150.6V389.4C150.6 395.133 151.333 400 152.8 404C154.267 408 156.8 411 160.4 413C164 415 168.933 416 175.2 416C179.867 416 184.067 415.6 187.8 414.8C191.533 414 195.133 412.933 198.6 411.6L202.2 423.6C197.8 425.2 193.133 426.533 188.2 427.6C183.4 428.8 177.933 429.4 171.8 429.4ZM262.122 429.4C256.122 429.4 250.589 428.333 245.522 426.2C240.455 423.933 236.455 420.733 233.522 416.6C230.589 412.467 229.122 407.533 229.122 401.8C229.122 390.867 234.589 382.6 245.522 377C256.455 371.267 274.455 367.4 299.522 365.4C299.389 361 298.455 356.933 296.722 353.2C295.122 349.467 292.455 346.533 288.722 344.4C284.989 342.133 279.989 341 273.722 341C269.589 341 265.455 341.6 261.322 342.8C257.322 343.867 253.455 345.333 249.722 347.2C246.122 348.933 242.789 350.733 239.722 352.6L233.322 341.4C236.522 339.267 240.389 337.133 244.922 335C249.589 332.733 254.589 330.933 259.922 329.6C265.255 328.133 270.789 327.4 276.522 327.4C285.455 327.4 292.789 329.067 298.522 332.4C304.389 335.733 308.722 340.4 311.522 346.4C314.455 352.267 315.922 359.267 315.922 367.4V427H302.522L301.122 413.8H300.522C295.189 418.067 289.189 421.733 282.522 424.8C275.855 427.867 269.055 429.4 262.122 429.4ZM266.522 416.2C272.122 416.2 277.655 414.933 283.122 412.4C288.589 409.867 294.055 406.333 299.522 401.8V376.2C285.655 377.4 274.722 379.067 266.722 381.2C258.855 383.333 253.255 386.067 249.922 389.4C246.722 392.6 245.122 396.333 245.122 400.6C245.122 404.2 246.122 407.2 248.122 409.6C250.122 411.867 252.722 413.533 255.922 414.6C259.255 415.667 262.789 416.2 266.522 416.2ZM396.844 429.4C392.044 429.4 386.91 428.267 381.444 426C376.11 423.6 371.177 420.333 366.644 416.2H366.044L364.644 427H351.444V284.6H367.844V323.4L367.244 342.2H367.844C372.244 337.667 377.31 334.067 383.044 331.4C388.91 328.733 394.71 327.4 400.444 327.4C409.244 327.4 416.644 329.467 422.644 333.6C428.644 337.6 433.177 343.333 436.244 350.8C439.31 358.133 440.844 366.8 440.844 376.8C440.844 387.867 438.777 397.333 434.644 405.2C430.644 413.067 425.31 419.067 418.644 423.2C411.977 427.333 404.71 429.4 396.844 429.4ZM394.244 415.6C399.844 415.6 404.844 414.067 409.244 411C413.777 407.933 417.31 403.533 419.844 397.8C422.51 391.933 423.844 385 423.844 377C423.844 369.933 422.91 363.733 421.044 358.4C419.177 352.933 416.244 348.733 412.244 345.8C408.244 342.733 402.977 341.2 396.444 341.2C392.044 341.2 387.377 342.4 382.444 344.8C377.644 347.067 372.777 350.733 367.844 355.8V404.2C372.51 408.333 377.177 411.267 381.844 413C386.644 414.733 390.777 415.6 394.244 415.6ZM171.8 609.4C162.333 609.4 154.867 607.733 149.4 604.4C143.933 600.933 140 596.2 137.6 590.2C135.333 584.2 134.2 577.2 134.2 569.2V523.2H106.8V510.8L134.8 509.8L137 478.6H150.6V509.8H198.4V523.2H150.6V569.4C150.6 575.133 151.333 580 152.8 584C154.267 588 156.8 591 160.4 593C164 595 168.933 596 175.2 596C179.867 596 184.067 595.6 187.8 594.8C191.533 594 195.133 592.933 198.6 591.6L202.2 603.6C197.8 605.2 193.133 606.533 188.2 607.6C183.4 608.8 177.933 609.4 171.8 609.4ZM231.522 607V464.6H247.922V503.4L246.922 526.4H247.522C252.455 521.067 257.855 516.6 263.722 513C269.589 509.267 276.322 507.4 283.922 507.4C295.389 507.4 303.855 510.733 309.322 517.4C314.789 524.067 317.522 533.8 317.522 546.6V607H301.122V548.8C301.122 539.6 299.389 532.8 295.922 528.4C292.455 523.867 286.722 521.6 278.722 521.6C272.989 521.6 267.855 523.067 263.322 526C258.789 528.933 253.655 533.333 247.922 539.2V607H231.522ZM382.044 609.4C376.044 609.4 370.51 608.333 365.444 606.2C360.377 603.933 356.377 600.733 353.444 596.6C350.51 592.467 349.044 587.533 349.044 581.8C349.044 570.867 354.51 562.6 365.444 557C376.377 551.267 394.377 547.4 419.444 545.4C419.31 541 418.377 536.933 416.644 533.2C415.044 529.467 412.377 526.533 408.644 524.4C404.91 522.133 399.91 521 393.644 521C389.51 521 385.377 521.6 381.244 522.8C377.244 523.867 373.377 525.333 369.644 527.2C366.044 528.933 362.71 530.733 359.644 532.6L353.244 521.4C356.444 519.267 360.31 517.133 364.844 515C369.51 512.733 374.51 510.933 379.844 509.6C385.177 508.133 390.71 507.4 396.444 507.4C405.377 507.4 412.71 509.067 418.444 512.4C424.31 515.733 428.644 520.4 431.444 526.4C434.377 532.267 435.844 539.267 435.844 547.4V607H422.444L421.044 593.8H420.444C415.11 598.067 409.11 601.733 402.444 604.8C395.777 607.867 388.977 609.4 382.044 609.4ZM386.444 596.2C392.044 596.2 397.577 594.933 403.044 592.4C408.51 589.867 413.977 586.333 419.444 581.8V556.2C405.577 557.4 394.644 559.067 386.644 561.2C378.777 563.333 373.177 566.067 369.844 569.4C366.644 572.6 365.044 576.333 365.044 580.6C365.044 584.2 366.044 587.2 368.044 589.6C370.044 591.867 372.644 593.533 375.844 594.6C379.177 595.667 382.71 596.2 386.444 596.2ZM531.566 609.4C522.099 609.4 514.632 607.733 509.166 604.4C503.699 600.933 499.766 596.2 497.366 590.2C495.099 584.2 493.966 577.2 493.966 569.2V523.2H466.566V510.8L494.566 509.8L496.766 478.6H510.366V509.8H558.166V523.2H510.366V569.4C510.366 575.133 511.099 580 512.566 584C514.032 588 516.566 591 520.166 593C523.766 595 528.699 596 534.966 596C539.632 596 543.832 595.6 547.566 594.8C551.299 594 554.899 592.933 558.366 591.6L561.966 603.6C557.566 605.2 552.899 606.533 547.966 607.6C543.166 608.8 537.699 609.4 531.566 609.4ZM621.688 537L616.088 527.4C622.754 523.533 627.888 518.733 631.487 513C635.221 507.133 637.088 500.4 637.088 492.8L633.088 477.2L644.088 490.6C642.354 492.467 640.421 494 638.288 495.2C636.154 496.4 633.954 497 631.688 497C627.554 497 624.154 495.667 621.488 493C618.821 490.333 617.488 486.933 617.488 482.8C617.488 478.133 618.888 474.4 621.688 471.6C624.488 468.667 628.021 467.2 632.288 467.2C637.488 467.2 641.754 469.333 645.088 473.6C648.554 477.867 650.288 483.8 650.288 491.4C650.288 501.4 647.754 510.4 642.688 518.4C637.621 526.267 630.621 532.467 621.688 537ZM754.609 609.4C745.143 609.4 736.276 607.867 728.009 604.8C719.743 601.733 712.676 598.2 706.809 594.2L714.409 583.4C720.009 587.4 726.209 590.6 733.009 593C739.809 595.4 747.676 596.6 756.609 596.6C764.876 596.6 771.009 595.067 775.009 592C779.143 588.933 781.209 585.4 781.209 581.4C781.209 579.533 780.809 577.8 780.009 576.2C779.343 574.6 777.943 573.067 775.809 571.6C773.809 570.133 770.809 568.733 766.809 567.4C762.809 566.067 757.476 564.733 750.809 563.4C738.143 560.733 728.609 557.133 722.209 552.6C715.943 548.067 712.809 542.2 712.809 535C712.809 527.133 716.209 520.6 723.009 515.4C729.809 510.067 739.876 507.4 753.209 507.4C760.676 507.4 767.876 508.667 774.809 511.2C781.743 513.6 787.609 516.467 792.409 519.8L784.409 530.4C780.009 527.2 775.009 524.733 769.409 523C763.809 521.133 757.943 520.2 751.809 520.2C746.209 520.2 741.743 520.867 738.409 522.2C735.209 523.4 732.876 525.067 731.409 527.2C730.076 529.333 729.409 531.667 729.409 534.2C729.409 538.333 731.609 541.6 736.009 544C740.543 546.267 747.743 548.4 757.609 550.4C768.409 552.667 776.676 555.2 782.409 558C788.276 560.8 792.276 564 794.409 567.6C796.676 571.2 797.809 575.467 797.809 580.4C797.809 585.733 796.143 590.6 792.809 595C789.476 599.267 784.609 602.733 778.209 605.4C771.809 608.067 763.943 609.4 754.609 609.4ZM111.6 828V689.8H125.2L126.6 702.2H127.2C131.733 697.933 136.933 694.4 142.8 691.6C148.8 688.8 154.8 687.4 160.8 687.4C169.6 687.4 176.933 689.467 182.8 693.6C188.8 697.6 193.333 703.333 196.4 710.8C199.467 718.133 201 726.867 201 737C201 747.933 198.933 757.333 194.8 765.2C190.667 773.067 185.267 779.067 178.6 783.2C171.933 787.333 164.667 789.4 156.8 789.4C152.4 789.4 147.533 788.333 142.2 786.2C137 783.933 132.2 780.8 127.8 776.8H127.2L128 795.2V828H111.6ZM154 775.6C159.733 775.6 164.867 774.067 169.4 771C173.933 767.933 177.467 763.533 180 757.8C182.667 751.933 184 745 184 737C184 729.933 183.067 723.733 181.2 718.4C179.333 712.933 176.4 708.733 172.4 705.8C168.4 702.733 163.133 701.2 156.6 701.2C152.2 701.2 147.533 702.4 142.6 704.8C137.8 707.067 132.933 710.733 128 715.8V764.2C132.667 768.333 137.333 771.267 142 773C146.8 774.733 150.8 775.6 154 775.6ZM294.122 789.4C283.855 789.4 275.989 786.467 270.522 780.6C265.055 774.6 262.322 765.867 262.322 754.4V658H229.122V644.6H278.722V755.6C278.722 762.667 280.455 767.8 283.922 771C287.389 774.2 291.989 775.8 297.722 775.8C300.522 775.8 303.389 775.467 306.322 774.8C309.255 774 312.522 772.8 316.122 771.2L320.322 783.6C315.922 785.2 311.789 786.533 307.922 787.6C304.055 788.8 299.455 789.4 294.122 789.4ZM382.044 789.4C376.044 789.4 370.51 788.333 365.444 786.2C360.377 783.933 356.377 780.733 353.444 776.6C350.51 772.467 349.044 767.533 349.044 761.8C349.044 750.867 354.51 742.6 365.444 737C376.377 731.267 394.377 727.4 419.444 725.4C419.31 721 418.377 716.933 416.644 713.2C415.044 709.467 412.377 706.533 408.644 704.4C404.91 702.133 399.91 701 393.644 701C389.51 701 385.377 701.6 381.244 702.8C377.244 703.867 373.377 705.333 369.644 707.2C366.044 708.933 362.71 710.733 359.644 712.6L353.244 701.4C356.444 699.267 360.31 697.133 364.844 695C369.51 692.733 374.51 690.933 379.844 689.6C385.177 688.133 390.71 687.4 396.444 687.4C405.377 687.4 412.71 689.067 418.444 692.4C424.31 695.733 428.644 700.4 431.444 706.4C434.377 712.267 435.844 719.267 435.844 727.4V787H422.444L421.044 773.8H420.444C415.11 778.067 409.11 781.733 402.444 784.8C395.777 787.867 388.977 789.4 382.044 789.4ZM386.444 776.2C392.044 776.2 397.577 774.933 403.044 772.4C408.51 769.867 413.977 766.333 419.444 761.8V736.2C405.577 737.4 394.644 739.067 386.644 741.2C378.777 743.333 373.177 746.067 369.844 749.4C366.644 752.6 365.044 756.333 365.044 760.6C365.044 764.2 366.044 767.2 368.044 769.6C370.044 771.867 372.644 773.533 375.844 774.6C379.177 775.667 382.71 776.2 386.444 776.2ZM478.966 828.8C476.832 828.8 474.566 828.6 472.166 828.2C469.899 827.8 467.899 827.333 466.166 826.8L469.566 813.8C470.899 814.2 472.299 814.533 473.766 814.8C475.366 815.067 476.899 815.2 478.366 815.2C485.166 815.2 490.699 813.2 494.966 809.2C499.232 805.333 502.566 800.4 504.966 794.4L507.966 787.2L462.566 689.8H479.166L502.966 743.6C504.832 747.867 506.766 752.467 508.766 757.4C510.899 762.2 512.966 767 514.966 771.8H515.766C517.499 767.133 519.232 762.4 520.966 757.6C522.832 752.667 524.566 748 526.166 743.6L547.366 689.8H562.966L520.166 795C517.766 801.4 514.766 807.133 511.166 812.2C507.566 817.4 503.099 821.467 497.766 824.4C492.566 827.333 486.299 828.8 478.966 828.8ZM635.888 787V703.2H590.688V689.8H652.288V787H635.888ZM642.288 669.4C638.554 669.4 635.421 668.267 632.888 666C630.354 663.6 629.088 660.467 629.088 656.6C629.088 652.733 630.354 649.667 632.888 647.4C635.421 645 638.554 643.8 642.288 643.8C646.021 643.8 649.154 645 651.688 647.4C654.221 649.667 655.488 652.733 655.488 656.6C655.488 660.467 654.221 663.6 651.688 666C649.154 668.267 646.021 669.4 642.288 669.4ZM711.209 787V689.8H724.809L726.209 706.4H727.009C732.076 700.933 737.543 696.4 743.409 692.8C749.276 689.2 756.009 687.4 763.609 687.4C775.076 687.4 783.543 690.733 789.009 697.4C794.476 704.067 797.209 713.8 797.209 726.6V787H780.809V728.8C780.809 719.6 779.076 712.8 775.609 708.4C772.143 703.867 766.409 701.6 758.409 701.6C752.676 701.6 747.543 703.067 743.009 706C738.476 708.933 733.343 713.333 727.609 719.2V787H711.209ZM871.731 831.8C862.265 831.8 854.198 830.733 847.531 828.6C840.865 826.467 835.731 823.4 832.131 819.4C828.665 815.4 826.931 810.533 826.931 804.8C826.931 800.933 828.265 797.067 830.931 793.2C833.731 789.467 837.731 786.133 842.931 783.2V782.4C840.398 780.933 838.065 778.933 835.931 776.4C833.931 773.867 832.931 770.533 832.931 766.4C832.931 763.333 833.931 760.2 835.931 757C837.931 753.667 840.798 750.733 844.531 748.2V747.4C841.198 744.867 838.331 741.467 835.931 737.2C833.665 732.933 832.531 727.933 832.531 722.2C832.531 715.133 834.265 709 837.731 703.8C841.331 698.6 845.998 694.6 851.731 691.8C857.598 688.867 863.931 687.4 870.731 687.4C876.198 687.4 880.998 688.2 885.131 689.8H925.331V703.2H900.131C902.398 705.467 904.331 708.333 905.931 711.8C907.531 715.267 908.331 718.933 908.331 722.8C908.331 729.733 906.665 735.733 903.331 740.8C899.998 745.733 895.465 749.533 889.731 752.2C884.131 754.867 877.798 756.2 870.731 756.2C868.198 756.2 865.465 755.933 862.531 755.4C859.731 754.733 856.998 753.8 854.331 752.6C851.931 754.067 850.065 755.733 848.731 757.6C847.398 759.467 846.731 761.533 846.731 763.8C846.731 767.533 848.465 770.333 851.931 772.2C855.531 774.067 860.531 775 866.931 775H888.731C901.265 775 910.531 776.733 916.531 780.2C922.665 783.667 925.731 789.533 925.731 797.8C925.731 803.8 923.531 809.4 919.131 814.6C914.731 819.8 908.465 823.933 900.331 827C892.331 830.2 882.798 831.8 871.731 831.8ZM870.731 745.2C874.865 745.2 878.598 744.267 881.931 742.4C885.398 740.533 888.131 737.867 890.131 734.4C892.131 730.933 893.131 726.867 893.131 722.2C893.131 717.667 892.131 713.733 890.131 710.4C888.131 706.933 885.398 704.267 881.931 702.4C878.598 700.4 874.865 699.4 870.731 699.4C866.731 699.4 862.998 700.4 859.531 702.4C856.198 704.267 853.465 706.933 851.331 710.4C849.331 713.733 848.331 717.667 848.331 722.2C848.331 726.867 849.331 730.933 851.331 734.4C853.465 737.867 856.198 740.533 859.531 742.4C862.998 744.267 866.731 745.2 870.731 745.2ZM872.931 819.8C880.531 819.8 887.065 818.867 892.531 817C897.998 815.133 902.198 812.733 905.131 809.8C908.065 806.867 909.531 803.733 909.531 800.4C909.531 795.733 907.665 792.6 903.931 791C900.331 789.4 894.798 788.6 887.331 788.6H868.331C865.531 788.6 862.865 788.467 860.331 788.2C857.931 787.933 855.665 787.533 853.531 787C848.998 789.533 845.798 792.133 843.931 794.8C842.065 797.6 841.131 800.4 841.131 803.2C841.131 808.267 843.798 812.267 849.131 815.2C854.598 818.267 862.531 819.8 872.931 819.8ZM104.6 967V869.8H117.8L119.2 882.6H119.6C122.133 878.067 125.067 874.4 128.4 871.6C131.733 868.8 136.2 867.4 141.8 867.4C146.6 867.4 150.533 868.8 153.6 871.6C156.667 874.4 158.867 878.6 160.2 884.2C163 879 166.067 874.933 169.4 872C172.867 868.933 177.4 867.4 183 867.4C189.8 867.4 195.067 870 198.8 875.2C202.667 880.267 204.6 887.667 204.6 897.4V967H188.2V898.6C188.2 887.267 184.733 881.6 177.8 881.6C174.467 881.6 171.667 882.867 169.4 885.4C167.267 887.8 164.867 891.533 162.2 896.6V967H147V898.6C147 893 146.2 888.8 144.6 886C143.133 883.067 140.6 881.6 137 881.6C133.667 881.6 130.733 882.867 128.2 885.4C125.8 887.8 123.4 891.533 121 896.6V967H104.6ZM262.122 969.4C250.522 969.4 241.989 966.067 236.522 959.4C231.055 952.733 228.322 943 228.322 930.2V869.8H244.922V928C244.922 937.2 246.589 944.067 249.922 948.6C253.389 953 259.189 955.2 267.322 955.2C272.922 955.2 277.989 953.8 282.522 951C287.189 948.067 292.189 943.467 297.522 937.2V869.8H313.922V967H300.522L299.122 950H298.322C293.389 955.6 287.989 960.267 282.122 964C276.255 967.6 269.589 969.4 262.122 969.4ZM394.844 969.4C385.377 969.4 376.51 967.867 368.244 964.8C359.977 961.733 352.91 958.2 347.044 954.2L354.644 943.4C360.244 947.4 366.444 950.6 373.244 953C380.044 955.4 387.91 956.6 396.844 956.6C405.11 956.6 411.244 955.067 415.244 952C419.377 948.933 421.444 945.4 421.444 941.4C421.444 939.533 421.044 937.8 420.244 936.2C419.577 934.6 418.177 933.067 416.044 931.6C414.044 930.133 411.044 928.733 407.044 927.4C403.044 926.067 397.71 924.733 391.044 923.4C378.377 920.733 368.844 917.133 362.444 912.6C356.177 908.067 353.044 902.2 353.044 895C353.044 887.133 356.444 880.6 363.244 875.4C370.044 870.067 380.11 867.4 393.444 867.4C400.91 867.4 408.11 868.667 415.044 871.2C421.977 873.6 427.844 876.467 432.644 879.8L424.644 890.4C420.244 887.2 415.244 884.733 409.644 883C404.044 881.133 398.177 880.2 392.044 880.2C386.444 880.2 381.977 880.867 378.644 882.2C375.444 883.4 373.11 885.067 371.644 887.2C370.31 889.333 369.644 891.667 369.644 894.2C369.644 898.333 371.844 901.6 376.244 904C380.777 906.267 387.977 908.4 397.844 910.4C408.644 912.667 416.91 915.2 422.644 918C428.51 920.8 432.51 924 434.644 927.6C436.91 931.2 438.044 935.467 438.044 940.4C438.044 945.733 436.377 950.6 433.044 955C429.71 959.267 424.844 962.733 418.444 965.4C412.044 968.067 404.177 969.4 394.844 969.4ZM515.966 967V883.2H470.766V869.8H532.366V967H515.966ZM522.366 849.4C518.632 849.4 515.499 848.267 512.966 846C510.432 843.6 509.166 840.467 509.166 836.6C509.166 832.733 510.432 829.667 512.966 827.4C515.499 825 518.632 823.8 522.366 823.8C526.099 823.8 529.232 825 531.766 827.4C534.299 829.667 535.566 832.733 535.566 836.6C535.566 840.467 534.299 843.6 531.766 846C529.232 848.267 526.099 849.4 522.366 849.4ZM641.888 969.4C631.754 969.4 622.621 967.4 614.488 963.4C606.488 959.4 600.154 953.6 595.488 946C590.954 938.4 588.688 929.267 588.688 918.6C588.688 907.667 591.154 898.4 596.088 890.8C601.021 883.2 607.554 877.4 615.688 873.4C623.954 869.4 633.021 867.4 642.888 867.4C650.888 867.4 657.754 868.8 663.488 871.6C669.354 874.4 674.288 877.733 678.287 881.6L670.088 892.2C666.088 888.733 661.954 886 657.688 884C653.421 882 648.688 881 643.488 881C636.021 881 629.421 882.6 623.688 885.8C617.954 888.867 613.488 893.267 610.288 899C607.221 904.6 605.688 911.133 605.688 918.6C605.688 925.933 607.221 932.4 610.288 938C613.354 943.6 617.688 948 623.288 951.2C629.021 954.267 635.621 955.8 643.088 955.8C649.088 955.8 654.554 954.6 659.488 952.2C664.554 949.8 669.088 946.933 673.088 943.6L680.488 954.2C675.154 959 669.154 962.733 662.488 965.4C655.954 968.067 649.088 969.4 641.888 969.4Z" fill="#949494"/>
<circle cx="1682" cy="879" r="92" fill="#949494"/>
<path d="M1682.2 908.2C1677.4 908.2 1673.23 907.467 1669.7 906C1666.23 904.467 1663.53 902.367 1661.6 899.7C1659.73 897.033 1658.8 894.033 1658.8 890.7C1658.8 887.767 1659.47 885.233 1660.8 883.1C1662.13 880.9 1663.83 879.067 1665.9 877.6C1668.03 876.067 1670.23 874.767 1672.5 873.7V873.3C1669.83 871.567 1667.53 869.5 1665.6 867.1C1663.73 864.633 1662.8 861.733 1662.8 858.4C1662.8 855.133 1663.63 852.267 1665.3 849.8C1667.03 847.333 1669.37 845.433 1672.3 844.1C1675.3 842.7 1678.7 842 1682.5 842C1688.7 842 1693.53 843.6 1697 846.8C1700.53 849.933 1702.3 854 1702.3 859C1702.3 862 1701.33 864.833 1699.4 867.5C1697.53 870.1 1695.27 872.333 1692.6 874.2V874.6C1694.93 875.8 1697.03 877.1 1698.9 878.5C1700.83 879.9 1702.33 881.6 1703.4 883.6C1704.53 885.6 1705.1 888.133 1705.1 891.2C1705.1 894.333 1704.2 897.2 1702.4 899.8C1700.67 902.333 1698.1 904.367 1694.7 905.9C1691.3 907.433 1687.13 908.2 1682.2 908.2ZM1687.2 872.2C1692.53 868.333 1695.2 864.067 1695.2 859.4C1695.2 857.333 1694.7 855.467 1693.7 853.8C1692.7 852.067 1691.23 850.7 1689.3 849.7C1687.43 848.633 1685.1 848.1 1682.3 848.1C1678.83 848.1 1675.97 849.067 1673.7 851C1671.43 852.867 1670.3 855.333 1670.3 858.4C1670.3 860.933 1671.03 863.033 1672.5 864.7C1674.03 866.367 1676.07 867.8 1678.6 869C1681.2 870.133 1684.07 871.2 1687.2 872.2ZM1682.4 902.1C1687.13 902.1 1690.77 901.067 1693.3 899C1695.9 896.933 1697.2 894.233 1697.2 890.9C1697.2 888.7 1696.67 886.867 1695.6 885.4C1694.6 883.867 1693.2 882.6 1691.4 881.6C1689.6 880.533 1687.47 879.567 1685 878.7C1682.6 877.833 1680 876.933 1677.2 876C1675.13 877.133 1673.27 878.367 1671.6 879.7C1669.93 881.033 1668.63 882.533 1667.7 884.2C1666.77 885.867 1666.3 887.767 1666.3 889.9C1666.3 892.233 1666.93 894.333 1668.2 896.2C1669.53 898 1671.4 899.433 1673.8 900.5C1676.27 901.567 1679.13 902.1 1682.4 902.1Z" fill="white"/>
</svg>
