<svg width="1920" height="1080" viewBox="0 0 1920 1080" fill="none" xmlns="http://www.w3.org/2000/svg">
<rect width="1920" height="1080" fill="white"/>
<path d="M147.2 249.4C134.533 249.4 124.333 245 116.6 236.2C108.867 227.267 105 214.733 105 198.6C105 188.067 107.067 179 111.2 171.4C115.467 163.667 120.933 157.733 127.6 153.6C134.4 149.467 141.6 147.4 149.2 147.4C154.933 147.4 160.133 148.533 164.8 150.8C169.6 152.933 174.067 156 178.2 160H178.8L178 142V104.6H194.4V247H180.8L179.4 234.2H178.8C174.933 238.333 170.2 241.933 164.6 245C159.133 247.933 153.333 249.4 147.2 249.4ZM150.6 235.6C155.4 235.6 160.067 234.4 164.6 232C169.133 229.467 173.6 225.8 178 221V172.6C173.6 168.467 169.267 165.533 165 163.8C160.867 162.067 156.667 161.2 152.4 161.2C146.8 161.2 141.667 162.8 137 166C132.467 169.067 128.8 173.4 126 179C123.333 184.467 122 190.933 122 198.4C122 210 124.533 219.133 129.6 225.8C134.667 232.333 141.667 235.6 150.6 235.6ZM278.922 249.4C269.189 249.4 260.322 247.4 252.322 243.4C244.455 239.4 238.189 233.6 233.522 226C228.855 218.267 226.522 209 226.522 198.2C226.522 187.667 228.855 178.6 233.522 171C238.189 163.4 244.255 157.6 251.722 153.6C259.322 149.467 267.455 147.4 276.122 147.4C285.455 147.4 293.389 149.333 299.922 153.2C306.589 156.933 311.655 162.2 315.122 169C318.722 175.8 320.522 183.8 320.522 193C320.522 194.867 320.455 196.667 320.322 198.4C320.189 200.133 319.989 201.667 319.722 203H237.522V190.2H309.922L305.722 194.8C305.722 183.333 303.055 174.733 297.722 169C292.522 163.267 285.455 160.4 276.522 160.4C270.522 160.4 264.922 161.867 259.722 164.8C254.655 167.733 250.589 172 247.522 177.6C244.455 183.2 242.922 190.067 242.922 198.2C242.922 206.6 244.589 213.6 247.922 219.2C251.255 224.8 255.789 229.067 261.522 232C267.255 234.8 273.722 236.2 280.922 236.2C286.789 236.2 292.055 235.4 296.722 233.8C301.522 232.067 306.122 229.8 310.522 227L316.522 237.8C311.722 241 306.189 243.733 299.922 246C293.789 248.267 286.789 249.4 278.922 249.4ZM344.444 247V149.8H357.644L359.044 162.6H359.444C361.977 158.067 364.91 154.4 368.244 151.6C371.577 148.8 376.044 147.4 381.644 147.4C386.444 147.4 390.377 148.8 393.444 151.6C396.51 154.4 398.71 158.6 400.044 164.2C402.844 159 405.91 154.933 409.244 152C412.71 148.933 417.244 147.4 422.844 147.4C429.644 147.4 434.91 150 438.644 155.2C442.51 160.267 444.444 167.667 444.444 177.4V247H428.044V178.6C428.044 167.267 424.577 161.6 417.644 161.6C414.31 161.6 411.51 162.867 409.244 165.4C407.11 167.8 404.71 171.533 402.044 176.6V247H386.844V178.6C386.844 173 386.044 168.8 384.444 166C382.977 163.067 380.444 161.6 376.844 161.6C373.51 161.6 370.577 162.867 368.044 165.4C365.644 167.8 363.244 171.533 360.844 176.6V247H344.444ZM512.766 249.4C504.232 249.4 496.299 247.4 488.966 243.4C481.766 239.4 475.899 233.6 471.366 226C466.966 218.4 464.766 209.267 464.766 198.6C464.766 187.667 466.966 178.4 471.366 170.8C475.899 163.2 481.766 157.4 488.966 153.4C496.299 149.4 504.232 147.4 512.766 147.4C521.299 147.4 529.166 149.4 536.366 153.4C543.699 157.4 549.566 163.2 553.966 170.8C558.499 178.4 560.766 187.667 560.766 198.6C560.766 209.267 558.499 218.4 553.966 226C549.566 233.6 543.699 239.4 536.366 243.4C529.166 247.4 521.299 249.4 512.766 249.4ZM512.766 235.8C519.032 235.8 524.499 234.267 529.166 231.2C533.832 228 537.432 223.6 539.966 218C542.499 212.4 543.766 205.933 543.766 198.6C543.766 191.133 542.499 184.6 539.966 179C537.432 173.267 533.832 168.867 529.166 165.8C524.499 162.6 519.032 161 512.766 161C506.499 161 501.032 162.6 496.366 165.8C491.832 168.867 488.232 173.267 485.566 179C483.032 184.6 481.766 191.133 481.766 198.6C481.766 205.933 483.032 212.4 485.566 218C488.232 223.6 491.832 228 496.366 231.2C501.032 234.267 506.499 235.8 512.766 235.8ZM641.888 249.4C631.754 249.4 622.621 247.4 614.488 243.4C606.488 239.4 600.154 233.6 595.488 226C590.954 218.4 588.688 209.267 588.688 198.6C588.688 187.667 591.154 178.4 596.088 170.8C601.021 163.2 607.554 157.4 615.688 153.4C623.954 149.4 633.021 147.4 642.888 147.4C650.888 147.4 657.754 148.8 663.488 151.6C669.354 154.4 674.288 157.733 678.287 161.6L670.088 172.2C666.088 168.733 661.954 166 657.688 164C653.421 162 648.688 161 643.488 161C636.021 161 629.421 162.6 623.688 165.8C617.954 168.867 613.488 173.267 610.288 179C607.221 184.6 605.688 191.133 605.688 198.6C605.688 205.933 607.221 212.4 610.288 218C613.354 223.6 617.688 228 623.288 231.2C629.021 234.267 635.621 235.8 643.088 235.8C649.088 235.8 654.554 234.6 659.488 232.2C664.554 229.8 669.088 226.933 673.088 223.6L680.488 234.2C675.154 239 669.154 242.733 662.488 245.4C655.954 248.067 649.088 249.4 641.888 249.4ZM721.809 247V149.8H735.409L736.809 172.8H737.409C742.476 164.933 748.743 158.733 756.209 154.2C763.676 149.667 771.876 147.4 780.809 147.4C784.409 147.4 787.743 147.733 790.809 148.4C794.009 148.933 797.076 149.933 800.009 151.4L796.209 165.6C792.876 164.4 790.009 163.533 787.609 163C785.209 162.467 782.076 162.2 778.209 162.2C770.876 162.2 763.809 164.333 757.009 168.6C750.343 172.733 744.076 179.867 738.209 190V247H721.809ZM861.731 249.4C855.731 249.4 850.198 248.333 845.131 246.2C840.065 243.933 836.065 240.733 833.131 236.6C830.198 232.467 828.731 227.533 828.731 221.8C828.731 210.867 834.198 202.6 845.131 197C856.065 191.267 874.065 187.4 899.131 185.4C898.998 181 898.065 176.933 896.331 173.2C894.731 169.467 892.065 166.533 888.331 164.4C884.598 162.133 879.598 161 873.331 161C869.198 161 865.065 161.6 860.931 162.8C856.931 163.867 853.065 165.333 849.331 167.2C845.731 168.933 842.398 170.733 839.331 172.6L832.931 161.4C836.131 159.267 839.998 157.133 844.531 155C849.198 152.733 854.198 150.933 859.531 149.6C864.865 148.133 870.398 147.4 876.131 147.4C885.065 147.4 892.398 149.067 898.131 152.4C903.998 155.733 908.331 160.4 911.131 166.4C914.065 172.267 915.531 179.267 915.531 187.4V247H902.131L900.731 233.8H900.131C894.798 238.067 888.798 241.733 882.131 244.8C875.465 247.867 868.665 249.4 861.731 249.4ZM866.131 236.2C871.731 236.2 877.265 234.933 882.731 232.4C888.198 229.867 893.665 226.333 899.131 221.8V196.2C885.265 197.4 874.331 199.067 866.331 201.2C858.465 203.333 852.865 206.067 849.531 209.4C846.331 212.6 844.731 216.333 844.731 220.6C844.731 224.2 845.731 227.2 847.731 229.6C849.731 231.867 852.331 233.533 855.531 234.6C858.865 235.667 862.398 236.2 866.131 236.2ZM1011.25 249.4C1001.79 249.4 994.32 247.733 988.853 244.4C983.386 240.933 979.453 236.2 977.053 230.2C974.786 224.2 973.653 217.2 973.653 209.2V163.2H946.253V150.8L974.253 149.8L976.453 118.6H990.053V149.8H1037.85V163.2H990.053V209.4C990.053 215.133 990.786 220 992.253 224C993.72 228 996.253 231 999.853 233C1003.45 235 1008.39 236 1014.65 236C1019.32 236 1023.52 235.6 1027.25 234.8C1030.99 234 1034.59 232.933 1038.05 231.6L1041.65 243.6C1037.25 245.2 1032.59 246.533 1027.65 247.6C1022.85 248.8 1017.39 249.4 1011.25 249.4ZM1115.58 247V163.2H1070.38V149.8H1131.98V247H1115.58ZM1121.98 129.4C1118.24 129.4 1115.11 128.267 1112.58 126C1110.04 123.6 1108.78 120.467 1108.78 116.6C1108.78 112.733 1110.04 109.667 1112.58 107.4C1115.11 105 1118.24 103.8 1121.98 103.8C1125.71 103.8 1128.84 105 1131.38 107.4C1133.91 109.667 1135.18 112.733 1135.18 116.6C1135.18 120.467 1133.91 123.6 1131.38 126C1128.84 128.267 1125.71 129.4 1121.98 129.4ZM1186.5 247V238.2L1253.1 163.2H1193.9V149.8H1276.7V158.6L1209.9 233.6H1278.5V247H1186.5ZM1358.22 249.4C1348.49 249.4 1339.62 247.4 1331.62 243.4C1323.75 239.4 1317.49 233.6 1312.82 226C1308.15 218.267 1305.82 209 1305.82 198.2C1305.82 187.667 1308.15 178.6 1312.82 171C1317.49 163.4 1323.55 157.6 1331.02 153.6C1338.62 149.467 1346.75 147.4 1355.42 147.4C1364.75 147.4 1372.69 149.333 1379.22 153.2C1385.89 156.933 1390.95 162.2 1394.42 169C1398.02 175.8 1399.82 183.8 1399.82 193C1399.82 194.867 1399.75 196.667 1399.62 198.4C1399.49 200.133 1399.29 201.667 1399.02 203H1316.82V190.2H1389.22L1385.02 194.8C1385.02 183.333 1382.35 174.733 1377.02 169C1371.82 163.267 1364.75 160.4 1355.82 160.4C1349.82 160.4 1344.22 161.867 1339.02 164.8C1333.95 167.733 1329.89 172 1326.82 177.6C1323.75 183.2 1322.22 190.067 1322.22 198.2C1322.22 206.6 1323.89 213.6 1327.22 219.2C1330.55 224.8 1335.09 229.067 1340.82 232C1346.55 234.8 1353.02 236.2 1360.22 236.2C1366.09 236.2 1371.35 235.4 1376.02 233.8C1380.82 232.067 1385.42 229.8 1389.82 227L1395.82 237.8C1391.02 241 1385.49 243.733 1379.22 246C1373.09 248.267 1366.09 249.4 1358.22 249.4ZM1466.34 249.4C1453.67 249.4 1443.47 245 1435.74 236.2C1428.01 227.267 1424.14 214.733 1424.14 198.6C1424.14 188.067 1426.21 179 1430.34 171.4C1434.61 163.667 1440.07 157.733 1446.74 153.6C1453.54 149.467 1460.74 147.4 1468.34 147.4C1474.07 147.4 1479.27 148.533 1483.94 150.8C1488.74 152.933 1493.21 156 1497.34 160H1497.94L1497.14 142V104.6H1513.54V247H1499.94L1498.54 234.2H1497.94C1494.07 238.333 1489.34 241.933 1483.74 245C1478.27 247.933 1472.47 249.4 1466.34 249.4ZM1469.74 235.6C1474.54 235.6 1479.21 234.4 1483.74 232C1488.27 229.467 1492.74 225.8 1497.14 221V172.6C1492.74 168.467 1488.41 165.533 1484.14 163.8C1480.01 162.067 1475.81 161.2 1471.54 161.2C1465.94 161.2 1460.81 162.8 1456.14 166C1451.61 169.067 1447.94 173.4 1445.14 179C1442.47 184.467 1441.14 190.933 1441.14 198.4C1441.14 210 1443.67 219.133 1448.74 225.8C1453.81 232.333 1460.81 235.6 1469.74 235.6ZM141.4 427V321.6C141.4 313.733 142.8 306.867 145.6 301C148.533 295 152.867 290.4 158.6 287.2C164.333 283.867 171.667 282.2 180.6 282.2C185.4 282.2 190.067 282.667 194.6 283.6C199.267 284.4 203.933 285.8 208.6 287.8L204.8 300.2C200.8 298.333 197.067 297.133 193.6 296.6C190.267 295.933 186.467 295.6 182.2 295.6C173.533 295.6 167.267 297.867 163.4 302.4C159.533 306.933 157.6 313.133 157.6 321V427H141.4ZM113.6 343.2V330.8L142 329.8H198.4V343.2H113.6ZM262.122 429.4C256.122 429.4 250.589 428.333 245.522 426.2C240.455 423.933 236.455 420.733 233.522 416.6C230.589 412.467 229.122 407.533 229.122 401.8C229.122 390.867 234.589 382.6 245.522 377C256.455 371.267 274.455 367.4 299.522 365.4C299.389 361 298.455 356.933 296.722 353.2C295.122 349.467 292.455 346.533 288.722 344.4C284.989 342.133 279.989 341 273.722 341C269.589 341 265.455 341.6 261.322 342.8C257.322 343.867 253.455 345.333 249.722 347.2C246.122 348.933 242.789 350.733 239.722 352.6L233.322 341.4C236.522 339.267 240.389 337.133 244.922 335C249.589 332.733 254.589 330.933 259.922 329.6C265.255 328.133 270.789 327.4 276.522 327.4C285.455 327.4 292.789 329.067 298.522 332.4C304.389 335.733 308.722 340.4 311.522 346.4C314.455 352.267 315.922 359.267 315.922 367.4V427H302.522L301.122 413.8H300.522C295.189 418.067 289.189 421.733 282.522 424.8C275.855 427.867 269.055 429.4 262.122 429.4ZM266.522 416.2C272.122 416.2 277.655 414.933 283.122 412.4C288.589 409.867 294.055 406.333 299.522 401.8V376.2C285.655 377.4 274.722 379.067 266.722 381.2C258.855 383.333 253.255 386.067 249.922 389.4C246.722 392.6 245.122 396.333 245.122 400.6C245.122 404.2 246.122 407.2 248.122 409.6C250.122 411.867 252.722 413.533 255.922 414.6C259.255 415.667 262.789 416.2 266.522 416.2ZM351.444 427V329.8H365.044L366.444 346.4H367.244C372.31 340.933 377.777 336.4 383.644 332.8C389.51 329.2 396.244 327.4 403.844 327.4C415.31 327.4 423.777 330.733 429.244 337.4C434.71 344.067 437.444 353.8 437.444 366.6V427H421.044V368.8C421.044 359.6 419.31 352.8 415.844 348.4C412.377 343.867 406.644 341.6 398.644 341.6C392.91 341.6 387.777 343.067 383.244 346C378.71 348.933 373.577 353.333 367.844 359.2V427H351.444ZM521.966 429.4C511.832 429.4 502.699 427.4 494.566 423.4C486.566 419.4 480.232 413.6 475.566 406C471.032 398.4 468.766 389.267 468.766 378.6C468.766 367.667 471.232 358.4 476.166 350.8C481.099 343.2 487.632 337.4 495.766 333.4C504.032 329.4 513.099 327.4 522.966 327.4C530.966 327.4 537.832 328.8 543.566 331.6C549.432 334.4 554.366 337.733 558.366 341.6L550.166 352.2C546.166 348.733 542.032 346 537.766 344C533.499 342 528.766 341 523.566 341C516.099 341 509.499 342.6 503.766 345.8C498.032 348.867 493.566 353.267 490.366 359C487.299 364.6 485.766 371.133 485.766 378.6C485.766 385.933 487.299 392.4 490.366 398C493.432 403.6 497.766 408 503.366 411.2C509.099 414.267 515.699 415.8 523.166 415.8C529.166 415.8 534.632 414.6 539.566 412.2C544.632 409.8 549.166 406.933 553.166 403.6L560.566 414.2C555.232 419 549.232 422.733 542.566 425.4C536.032 428.067 529.166 429.4 521.966 429.4ZM598.888 468.8C596.754 468.8 594.488 468.6 592.088 468.2C589.821 467.8 587.821 467.333 586.088 466.8L589.488 453.8C590.821 454.2 592.221 454.533 593.688 454.8C595.288 455.067 596.821 455.2 598.288 455.2C605.088 455.2 610.621 453.2 614.888 449.2C619.154 445.333 622.488 440.4 624.888 434.4L627.888 427.2L582.488 329.8H599.087L622.888 383.6C624.754 387.867 626.688 392.467 628.688 397.4C630.821 402.2 632.888 407 634.888 411.8H635.688C637.421 407.133 639.154 402.4 640.888 397.6C642.754 392.667 644.488 388 646.088 383.6L667.288 329.8H682.887L640.088 435C637.688 441.4 634.688 447.133 631.088 452.2C627.488 457.4 623.021 461.467 617.688 464.4C612.488 467.333 606.221 468.8 598.888 468.8ZM142.2 609.4C136.2 609.4 130.667 608.333 125.6 606.2C120.533 603.933 116.533 600.733 113.6 596.6C110.667 592.467 109.2 587.533 109.2 581.8C109.2 570.867 114.667 562.6 125.6 557C136.533 551.267 154.533 547.4 179.6 545.4C179.467 541 178.533 536.933 176.8 533.2C175.2 529.467 172.533 526.533 168.8 524.4C165.067 522.133 160.067 521 153.8 521C149.667 521 145.533 521.6 141.4 522.8C137.4 523.867 133.533 525.333 129.8 527.2C126.2 528.933 122.867 530.733 119.8 532.6L113.4 521.4C116.6 519.267 120.467 517.133 125 515C129.667 512.733 134.667 510.933 140 509.6C145.333 508.133 150.867 507.4 156.6 507.4C165.533 507.4 172.867 509.067 178.6 512.4C184.467 515.733 188.8 520.4 191.6 526.4C194.533 532.267 196 539.267 196 547.4V607H182.6L181.2 593.8H180.6C175.267 598.067 169.267 601.733 162.6 604.8C155.933 607.867 149.133 609.4 142.2 609.4ZM146.6 596.2C152.2 596.2 157.733 594.933 163.2 592.4C168.667 589.867 174.133 586.333 179.6 581.8V556.2C165.733 557.4 154.8 559.067 146.8 561.2C138.933 563.333 133.333 566.067 130 569.4C126.8 572.6 125.2 576.333 125.2 580.6C125.2 584.2 126.2 587.2 128.2 589.6C130.2 591.867 132.8 593.533 136 594.6C139.333 595.667 142.867 596.2 146.6 596.2ZM231.522 607V509.8H245.122L246.522 526.4H247.322C252.389 520.933 257.855 516.4 263.722 512.8C269.589 509.2 276.322 507.4 283.922 507.4C295.389 507.4 303.855 510.733 309.322 517.4C314.789 524.067 317.522 533.8 317.522 546.6V607H301.122V548.8C301.122 539.6 299.389 532.8 295.922 528.4C292.455 523.867 286.722 521.6 278.722 521.6C272.989 521.6 267.855 523.067 263.322 526C258.789 528.933 253.655 533.333 247.922 539.2V607H231.522ZM396.044 607V523.2H350.844V509.8H412.444V607H396.044ZM402.444 489.4C398.71 489.4 395.577 488.267 393.044 486C390.51 483.6 389.244 480.467 389.244 476.6C389.244 472.733 390.51 469.667 393.044 467.4C395.577 465 398.71 463.8 402.444 463.8C406.177 463.8 409.31 465 411.844 467.4C414.377 469.667 415.644 472.733 415.644 476.6C415.644 480.467 414.377 483.6 411.844 486C409.31 488.267 406.177 489.4 402.444 489.4ZM464.366 607V509.8H477.566L478.966 522.6H479.366C481.899 518.067 484.832 514.4 488.166 511.6C491.499 508.8 495.966 507.4 501.566 507.4C506.366 507.4 510.299 508.8 513.366 511.6C516.432 514.4 518.632 518.6 519.966 524.2C522.766 519 525.832 514.933 529.166 512C532.632 508.933 537.166 507.4 542.766 507.4C549.566 507.4 554.832 510 558.566 515.2C562.432 520.267 564.366 527.667 564.366 537.4V607H547.966V538.6C547.966 527.267 544.499 521.6 537.566 521.6C534.232 521.6 531.432 522.867 529.166 525.4C527.032 527.8 524.632 531.533 521.966 536.6V607H506.766V538.6C506.766 533 505.966 528.8 504.366 526C502.899 523.067 500.366 521.6 496.766 521.6C493.432 521.6 490.499 522.867 487.966 525.4C485.566 527.8 483.166 531.533 480.766 536.6V607H464.366ZM621.888 609.4C615.888 609.4 610.354 608.333 605.288 606.2C600.221 603.933 596.221 600.733 593.288 596.6C590.354 592.467 588.888 587.533 588.888 581.8C588.888 570.867 594.354 562.6 605.288 557C616.221 551.267 634.221 547.4 659.288 545.4C659.154 541 658.221 536.933 656.488 533.2C654.888 529.467 652.221 526.533 648.488 524.4C644.754 522.133 639.754 521 633.488 521C629.354 521 625.221 521.6 621.088 522.8C617.088 523.867 613.221 525.333 609.488 527.2C605.888 528.933 602.554 530.733 599.488 532.6L593.088 521.4C596.288 519.267 600.154 517.133 604.688 515C609.354 512.733 614.354 510.933 619.688 509.6C625.021 508.133 630.554 507.4 636.288 507.4C645.221 507.4 652.554 509.067 658.288 512.4C664.154 515.733 668.488 520.4 671.288 526.4C674.221 532.267 675.688 539.267 675.688 547.4V607H662.288L660.888 593.8H660.288C654.954 598.067 648.954 601.733 642.288 604.8C635.621 607.867 628.821 609.4 621.888 609.4ZM626.288 596.2C631.888 596.2 637.421 594.933 642.888 592.4C648.354 589.867 653.821 586.333 659.288 581.8V556.2C645.421 557.4 634.488 559.067 626.488 561.2C618.621 563.333 613.021 566.067 609.688 569.4C606.488 572.6 604.888 576.333 604.888 580.6C604.888 584.2 605.888 587.2 607.888 589.6C609.888 591.867 612.488 593.533 615.688 594.6C619.021 595.667 622.554 596.2 626.288 596.2ZM771.409 609.4C761.943 609.4 754.476 607.733 749.009 604.4C743.543 600.933 739.609 596.2 737.209 590.2C734.943 584.2 733.809 577.2 733.809 569.2V523.2H706.409V510.8L734.409 509.8L736.609 478.6H750.209V509.8H798.009V523.2H750.209V569.4C750.209 575.133 750.943 580 752.409 584C753.876 588 756.409 591 760.009 593C763.609 595 768.543 596 774.809 596C779.476 596 783.676 595.6 787.409 594.8C791.143 594 794.743 592.933 798.209 591.6L801.809 603.6C797.409 605.2 792.743 606.533 787.809 607.6C783.009 608.8 777.543 609.4 771.409 609.4ZM875.731 607V523.2H830.531V509.8H892.131V607H875.731ZM882.131 489.4C878.398 489.4 875.265 488.267 872.731 486C870.198 483.6 868.931 480.467 868.931 476.6C868.931 472.733 870.198 469.667 872.731 467.4C875.265 465 878.398 463.8 882.131 463.8C885.865 463.8 888.998 465 891.531 467.4C894.065 469.667 895.331 472.733 895.331 476.6C895.331 480.467 894.065 483.6 891.531 486C888.998 488.267 885.865 489.4 882.131 489.4ZM992.453 609.4C983.92 609.4 975.986 607.4 968.653 603.4C961.453 599.4 955.586 593.6 951.053 586C946.653 578.4 944.453 569.267 944.453 558.6C944.453 547.667 946.653 538.4 951.053 530.8C955.586 523.2 961.453 517.4 968.653 513.4C975.986 509.4 983.92 507.4 992.453 507.4C1000.99 507.4 1008.85 509.4 1016.05 513.4C1023.39 517.4 1029.25 523.2 1033.65 530.8C1038.19 538.4 1040.45 547.667 1040.45 558.6C1040.45 569.267 1038.19 578.4 1033.65 586C1029.25 593.6 1023.39 599.4 1016.05 603.4C1008.85 607.4 1000.99 609.4 992.453 609.4ZM992.453 595.8C998.72 595.8 1004.19 594.267 1008.85 591.2C1013.52 588 1017.12 583.6 1019.65 578C1022.19 572.4 1023.45 565.933 1023.45 558.6C1023.45 551.133 1022.19 544.6 1019.65 539C1017.12 533.267 1013.52 528.867 1008.85 525.8C1004.19 522.6 998.72 521 992.453 521C986.186 521 980.72 522.6 976.053 525.8C971.52 528.867 967.92 533.267 965.253 539C962.72 544.6 961.453 551.133 961.453 558.6C961.453 565.933 962.72 572.4 965.253 578C967.92 583.6 971.52 588 976.053 591.2C980.72 594.267 986.186 595.8 992.453 595.8ZM1070.98 607V509.8H1084.58L1085.98 526.4H1086.78C1091.84 520.933 1097.31 516.4 1103.18 512.8C1109.04 509.2 1115.78 507.4 1123.38 507.4C1134.84 507.4 1143.31 510.733 1148.78 517.4C1154.24 524.067 1156.98 533.8 1156.98 546.6V607H1140.58V548.8C1140.58 539.6 1138.84 532.8 1135.38 528.4C1131.91 523.867 1126.18 521.6 1118.18 521.6C1112.44 521.6 1107.31 523.067 1102.78 526C1098.24 528.933 1093.11 533.333 1087.38 539.2V607H1070.98ZM1234.3 609.4C1224.83 609.4 1215.96 607.867 1207.7 604.8C1199.43 601.733 1192.36 598.2 1186.5 594.2L1194.1 583.4C1199.7 587.4 1205.9 590.6 1212.7 593C1219.5 595.4 1227.36 596.6 1236.3 596.6C1244.56 596.6 1250.7 595.067 1254.7 592C1258.83 588.933 1260.9 585.4 1260.9 581.4C1260.9 579.533 1260.5 577.8 1259.7 576.2C1259.03 574.6 1257.63 573.067 1255.5 571.6C1253.5 570.133 1250.5 568.733 1246.5 567.4C1242.5 566.067 1237.16 564.733 1230.5 563.4C1217.83 560.733 1208.3 557.133 1201.9 552.6C1195.63 548.067 1192.5 542.2 1192.5 535C1192.5 527.133 1195.9 520.6 1202.7 515.4C1209.5 510.067 1219.56 507.4 1232.9 507.4C1240.36 507.4 1247.56 508.667 1254.5 511.2C1261.43 513.6 1267.3 516.467 1272.1 519.8L1264.1 530.4C1259.7 527.2 1254.7 524.733 1249.1 523C1243.5 521.133 1237.63 520.2 1231.5 520.2C1225.9 520.2 1221.43 520.867 1218.1 522.2C1214.9 523.4 1212.56 525.067 1211.1 527.2C1209.76 529.333 1209.1 531.667 1209.1 534.2C1209.1 538.333 1211.3 541.6 1215.7 544C1220.23 546.267 1227.43 548.4 1237.3 550.4C1248.1 552.667 1256.36 555.2 1262.1 558C1267.96 560.8 1271.96 564 1274.1 567.6C1276.36 571.2 1277.5 575.467 1277.5 580.4C1277.5 585.733 1275.83 590.6 1272.5 595C1269.16 599.267 1264.3 602.733 1257.9 605.4C1251.5 608.067 1243.63 609.4 1234.3 609.4Z" fill="#949494"/>
<circle cx="1682" cy="879" r="92" fill="#949494"/>
<path d="M1684.1 908.2C1680.63 908.2 1677.4 907.567 1674.4 906.3C1671.47 905.033 1668.9 903.133 1666.7 900.6C1664.5 898 1662.77 894.8 1661.5 891C1660.3 887.133 1659.7 882.633 1659.7 877.5C1659.7 871.1 1660.43 865.667 1661.9 861.2C1663.37 856.667 1665.33 853 1667.8 850.2C1670.33 847.4 1673.2 845.333 1676.4 844C1679.6 842.667 1682.93 842 1686.4 842C1690.27 842 1693.67 842.667 1696.6 844C1699.53 845.267 1702.07 846.867 1704.2 848.8L1699.6 853.9C1698 852.367 1696.07 851.167 1693.8 850.3C1691.6 849.367 1689.3 848.9 1686.9 848.9C1683.43 848.9 1680.23 849.8 1677.3 851.6C1674.37 853.4 1671.97 856.4 1670.1 860.6C1668.3 864.733 1667.4 870.367 1667.4 877.5C1667.4 882.767 1668.03 887.2 1669.3 890.8C1670.63 894.4 1672.53 897.133 1675 899C1677.53 900.8 1680.57 901.7 1684.1 901.7C1686.63 901.7 1688.9 901.133 1690.9 900C1692.97 898.8 1694.6 897.167 1695.8 895.1C1697 892.967 1697.6 890.5 1697.6 887.7C1697.6 883.3 1696.43 879.967 1694.1 877.7C1691.77 875.367 1688.4 874.2 1684 874.2C1681.47 874.2 1678.73 874.9 1675.8 876.3C1672.87 877.633 1670.03 879.933 1667.3 883.2L1667 876.7C1669.67 874.033 1672.57 871.933 1675.7 870.4C1678.9 868.8 1682.17 868 1685.5 868C1689.43 868 1692.9 868.733 1695.9 870.2C1698.9 871.667 1701.23 873.867 1702.9 876.8C1704.57 879.733 1705.4 883.367 1705.4 887.7C1705.4 891.767 1704.4 895.333 1702.4 898.4C1700.47 901.467 1697.87 903.867 1694.6 905.6C1691.4 907.333 1687.9 908.2 1684.1 908.2Z" fill="white"/>
</svg>
