<svg width="1920" height="1080" viewBox="0 0 1920 1080" fill="none" xmlns="http://www.w3.org/2000/svg">
<rect width="1920" height="1080" fill="white"/>
<path d="M152.2 291.8C142.733 291.8 134.667 290.733 128 288.6C121.333 286.467 116.2 283.4 112.6 279.4C109.133 275.4 107.4 270.533 107.4 264.8C107.4 260.933 108.733 257.067 111.4 253.2C114.2 249.467 118.2 246.133 123.4 243.2V242.4C120.867 240.933 118.533 238.933 116.4 236.4C114.4 233.867 113.4 230.533 113.4 226.4C113.4 223.333 114.4 220.2 116.4 217C118.4 213.667 121.267 210.733 125 208.2V207.4C121.667 204.867 118.8 201.467 116.4 197.2C114.133 192.933 113 187.933 113 182.2C113 175.133 114.733 169 118.2 163.8C121.8 158.6 126.467 154.6 132.2 151.8C138.067 148.867 144.4 147.4 151.2 147.4C156.667 147.4 161.467 148.2 165.6 149.8H205.8V163.2H180.6C182.867 165.467 184.8 168.333 186.4 171.8C188 175.267 188.8 178.933 188.8 182.8C188.8 189.733 187.133 195.733 183.8 200.8C180.467 205.733 175.933 209.533 170.2 212.2C164.6 214.867 158.267 216.2 151.2 216.2C148.667 216.2 145.933 215.933 143 215.4C140.2 214.733 137.467 213.8 134.8 212.6C132.4 214.067 130.533 215.733 129.2 217.6C127.867 219.467 127.2 221.533 127.2 223.8C127.2 227.533 128.933 230.333 132.4 232.2C136 234.067 141 235 147.4 235H169.2C181.733 235 191 236.733 197 240.2C203.133 243.667 206.2 249.533 206.2 257.8C206.2 263.8 204 269.4 199.6 274.6C195.2 279.8 188.933 283.933 180.8 287C172.8 290.2 163.267 291.8 152.2 291.8ZM151.2 205.2C155.333 205.2 159.067 204.267 162.4 202.4C165.867 200.533 168.6 197.867 170.6 194.4C172.6 190.933 173.6 186.867 173.6 182.2C173.6 177.667 172.6 173.733 170.6 170.4C168.6 166.933 165.867 164.267 162.4 162.4C159.067 160.4 155.333 159.4 151.2 159.4C147.2 159.4 143.467 160.4 140 162.4C136.667 164.267 133.933 166.933 131.8 170.4C129.8 173.733 128.8 177.667 128.8 182.2C128.8 186.867 129.8 190.933 131.8 194.4C133.933 197.867 136.667 200.533 140 202.4C143.467 204.267 147.2 205.2 151.2 205.2ZM153.4 279.8C161 279.8 167.533 278.867 173 277C178.467 275.133 182.667 272.733 185.6 269.8C188.533 266.867 190 263.733 190 260.4C190 255.733 188.133 252.6 184.4 251C180.8 249.4 175.267 248.6 167.8 248.6H148.8C146 248.6 143.333 248.467 140.8 248.2C138.4 247.933 136.133 247.533 134 247C129.467 249.533 126.267 252.133 124.4 254.8C122.533 257.6 121.6 260.4 121.6 263.2C121.6 268.267 124.267 272.267 129.6 275.2C135.067 278.267 143 279.8 153.4 279.8ZM242.122 247V149.8H255.722L257.122 172.8H257.722C262.789 164.933 269.055 158.733 276.522 154.2C283.989 149.667 292.189 147.4 301.122 147.4C304.722 147.4 308.055 147.733 311.122 148.4C314.322 148.933 317.389 149.933 320.322 151.4L316.522 165.6C313.189 164.4 310.322 163.533 307.922 163C305.522 162.467 302.389 162.2 298.522 162.2C291.189 162.2 284.122 164.333 277.322 168.6C270.655 172.733 264.389 179.867 258.522 190V247H242.122ZM382.044 249.4C376.044 249.4 370.51 248.333 365.444 246.2C360.377 243.933 356.377 240.733 353.444 236.6C350.51 232.467 349.044 227.533 349.044 221.8C349.044 210.867 354.51 202.6 365.444 197C376.377 191.267 394.377 187.4 419.444 185.4C419.31 181 418.377 176.933 416.644 173.2C415.044 169.467 412.377 166.533 408.644 164.4C404.91 162.133 399.91 161 393.644 161C389.51 161 385.377 161.6 381.244 162.8C377.244 163.867 373.377 165.333 369.644 167.2C366.044 168.933 362.71 170.733 359.644 172.6L353.244 161.4C356.444 159.267 360.31 157.133 364.844 155C369.51 152.733 374.51 150.933 379.844 149.6C385.177 148.133 390.71 147.4 396.444 147.4C405.377 147.4 412.71 149.067 418.444 152.4C424.31 155.733 428.644 160.4 431.444 166.4C434.377 172.267 435.844 179.267 435.844 187.4V247H422.444L421.044 233.8H420.444C415.11 238.067 409.11 241.733 402.444 244.8C395.777 247.867 388.977 249.4 382.044 249.4ZM386.444 236.2C392.044 236.2 397.577 234.933 403.044 232.4C408.51 229.867 413.977 226.333 419.444 221.8V196.2C405.577 197.4 394.644 199.067 386.644 201.2C378.777 203.333 373.177 206.067 369.844 209.4C366.644 212.6 365.044 216.333 365.044 220.6C365.044 224.2 366.044 227.2 368.044 229.6C370.044 231.867 372.644 233.533 375.844 234.6C379.177 235.667 382.71 236.2 386.444 236.2ZM506.966 249.4C494.299 249.4 484.099 245 476.366 236.2C468.632 227.267 464.766 214.733 464.766 198.6C464.766 188.067 466.832 179 470.966 171.4C475.232 163.667 480.699 157.733 487.366 153.6C494.166 149.467 501.366 147.4 508.966 147.4C514.699 147.4 519.899 148.533 524.566 150.8C529.366 152.933 533.832 156 537.966 160H538.566L537.766 142V104.6H554.166V247H540.566L539.166 234.2H538.566C534.699 238.333 529.966 241.933 524.366 245C518.899 247.933 513.099 249.4 506.966 249.4ZM510.366 235.6C515.166 235.6 519.832 234.4 524.366 232C528.899 229.467 533.366 225.8 537.766 221V172.6C533.366 168.467 529.032 165.533 524.766 163.8C520.632 162.067 516.432 161.2 512.166 161.2C506.566 161.2 501.432 162.8 496.766 166C492.232 169.067 488.566 173.4 485.766 179C483.099 184.467 481.766 190.933 481.766 198.4C481.766 210 484.299 219.133 489.366 225.8C494.432 232.333 501.432 235.6 510.366 235.6ZM638.688 249.4C628.954 249.4 620.088 247.4 612.088 243.4C604.221 239.4 597.954 233.6 593.288 226C588.621 218.267 586.288 209 586.288 198.2C586.288 187.667 588.621 178.6 593.288 171C597.954 163.4 604.021 157.6 611.488 153.6C619.088 149.467 627.221 147.4 635.888 147.4C645.221 147.4 653.154 149.333 659.688 153.2C666.354 156.933 671.421 162.2 674.888 169C678.488 175.8 680.288 183.8 680.288 193C680.288 194.867 680.221 196.667 680.088 198.4C679.954 200.133 679.754 201.667 679.488 203H597.288V190.2H669.688L665.488 194.8C665.488 183.333 662.821 174.733 657.488 169C652.288 163.267 645.221 160.4 636.288 160.4C630.288 160.4 624.688 161.867 619.488 164.8C614.421 167.733 610.354 172 607.288 177.6C604.221 183.2 602.688 190.067 602.688 198.2C602.688 206.6 604.354 213.6 607.688 219.2C611.021 224.8 615.554 229.067 621.288 232C627.021 234.8 633.488 236.2 640.688 236.2C646.554 236.2 651.821 235.4 656.488 233.8C661.288 232.067 665.888 229.8 670.288 227L676.288 237.8C671.488 241 665.954 243.733 659.688 246C653.554 248.267 646.554 249.4 638.688 249.4ZM155 429.4C145.533 429.4 136.667 427.867 128.4 424.8C120.133 421.733 113.067 418.2 107.2 414.2L114.8 403.4C120.4 407.4 126.6 410.6 133.4 413C140.2 415.4 148.067 416.6 157 416.6C165.267 416.6 171.4 415.067 175.4 412C179.533 408.933 181.6 405.4 181.6 401.4C181.6 399.533 181.2 397.8 180.4 396.2C179.733 394.6 178.333 393.067 176.2 391.6C174.2 390.133 171.2 388.733 167.2 387.4C163.2 386.067 157.867 384.733 151.2 383.4C138.533 380.733 129 377.133 122.6 372.6C116.333 368.067 113.2 362.2 113.2 355C113.2 347.133 116.6 340.6 123.4 335.4C130.2 330.067 140.267 327.4 153.6 327.4C161.067 327.4 168.267 328.667 175.2 331.2C182.133 333.6 188 336.467 192.8 339.8L184.8 350.4C180.4 347.2 175.4 344.733 169.8 343C164.2 341.133 158.333 340.2 152.2 340.2C146.6 340.2 142.133 340.867 138.8 342.2C135.6 343.4 133.267 345.067 131.8 347.2C130.467 349.333 129.8 351.667 129.8 354.2C129.8 358.333 132 361.6 136.4 364C140.933 366.267 148.133 368.4 158 370.4C168.8 372.667 177.067 375.2 182.8 378C188.667 380.8 192.667 384 194.8 387.6C197.067 391.2 198.2 395.467 198.2 400.4C198.2 405.733 196.533 410.6 193.2 415C189.867 419.267 185 422.733 178.6 425.4C172.2 428.067 164.333 429.4 155 429.4ZM282.122 429.4C271.989 429.4 262.855 427.4 254.722 423.4C246.722 419.4 240.389 413.6 235.722 406C231.189 398.4 228.922 389.267 228.922 378.6C228.922 367.667 231.389 358.4 236.322 350.8C241.255 343.2 247.789 337.4 255.922 333.4C264.189 329.4 273.255 327.4 283.122 327.4C291.122 327.4 297.989 328.8 303.722 331.6C309.589 334.4 314.522 337.733 318.522 341.6L310.322 352.2C306.322 348.733 302.189 346 297.922 344C293.655 342 288.922 341 283.722 341C276.255 341 269.655 342.6 263.922 345.8C258.189 348.867 253.722 353.267 250.522 359C247.455 364.6 245.922 371.133 245.922 378.6C245.922 385.933 247.455 392.4 250.522 398C253.589 403.6 257.922 408 263.522 411.2C269.255 414.267 275.855 415.8 283.322 415.8C289.322 415.8 294.789 414.6 299.722 412.2C304.789 409.8 309.322 406.933 313.322 403.6L320.722 414.2C315.389 419 309.389 422.733 302.722 425.4C296.189 428.067 289.322 429.4 282.122 429.4ZM351.444 427V284.6H367.844V323.4L366.844 346.4H367.444C372.377 341.067 377.777 336.6 383.644 333C389.51 329.267 396.244 327.4 403.844 327.4C415.31 327.4 423.777 330.733 429.244 337.4C434.71 344.067 437.444 353.8 437.444 366.6V427H421.044V368.8C421.044 359.6 419.31 352.8 415.844 348.4C412.377 343.867 406.644 341.6 398.644 341.6C392.91 341.6 387.777 343.067 383.244 346C378.71 348.933 373.577 353.333 367.844 359.2V427H351.444ZM512.766 429.4C504.232 429.4 496.299 427.4 488.966 423.4C481.766 419.4 475.899 413.6 471.366 406C466.966 398.4 464.766 389.267 464.766 378.6C464.766 367.667 466.966 358.4 471.366 350.8C475.899 343.2 481.766 337.4 488.966 333.4C496.299 329.4 504.232 327.4 512.766 327.4C521.299 327.4 529.166 329.4 536.366 333.4C543.699 337.4 549.566 343.2 553.966 350.8C558.499 358.4 560.766 367.667 560.766 378.6C560.766 389.267 558.499 398.4 553.966 406C549.566 413.6 543.699 419.4 536.366 423.4C529.166 427.4 521.299 429.4 512.766 429.4ZM512.766 415.8C519.032 415.8 524.499 414.267 529.166 411.2C533.832 408 537.432 403.6 539.966 398C542.499 392.4 543.766 385.933 543.766 378.6C543.766 371.133 542.499 364.6 539.966 359C537.432 353.267 533.832 348.867 529.166 345.8C524.499 342.6 519.032 341 512.766 341C506.499 341 501.032 342.6 496.366 345.8C491.832 348.867 488.232 353.267 485.566 359C483.032 364.6 481.766 371.133 481.766 378.6C481.766 385.933 483.032 392.4 485.566 398C488.232 403.6 491.832 408 496.366 411.2C501.032 414.267 506.499 415.8 512.766 415.8ZM632.688 429.4C624.154 429.4 616.221 427.4 608.888 423.4C601.688 419.4 595.821 413.6 591.288 406C586.888 398.4 584.688 389.267 584.688 378.6C584.688 367.667 586.888 358.4 591.288 350.8C595.821 343.2 601.688 337.4 608.888 333.4C616.221 329.4 624.154 327.4 632.688 327.4C641.221 327.4 649.088 329.4 656.288 333.4C663.621 337.4 669.488 343.2 673.888 350.8C678.421 358.4 680.688 367.667 680.688 378.6C680.688 389.267 678.421 398.4 673.888 406C669.488 413.6 663.621 419.4 656.288 423.4C649.088 427.4 641.221 429.4 632.688 429.4ZM632.688 415.8C638.954 415.8 644.421 414.267 649.088 411.2C653.754 408 657.354 403.6 659.888 398C662.421 392.4 663.688 385.933 663.688 378.6C663.688 371.133 662.421 364.6 659.888 359C657.354 353.267 653.754 348.867 649.088 345.8C644.421 342.6 638.954 341 632.688 341C626.421 341 620.954 342.6 616.288 345.8C611.754 348.867 608.154 353.267 605.488 359C602.954 364.6 601.688 371.133 601.688 378.6C601.688 385.933 602.954 392.4 605.488 398C608.154 403.6 611.754 408 616.288 411.2C620.954 414.267 626.421 415.8 632.688 415.8ZM773.809 429.4C763.543 429.4 755.676 426.467 750.209 420.6C744.743 414.6 742.009 405.867 742.009 394.4V298H708.809V284.6H758.409V395.6C758.409 402.667 760.143 407.8 763.609 411C767.076 414.2 771.676 415.8 777.409 415.8C780.209 415.8 783.076 415.467 786.009 414.8C788.943 414 792.209 412.8 795.809 411.2L800.009 423.6C795.609 425.2 791.476 426.533 787.609 427.6C783.743 428.8 779.143 429.4 773.809 429.4ZM162.2 609.4C152.067 609.4 142.933 607.4 134.8 603.4C126.8 599.4 120.467 593.6 115.8 586C111.267 578.4 109 569.267 109 558.6C109 547.667 111.467 538.4 116.4 530.8C121.333 523.2 127.867 517.4 136 513.4C144.267 509.4 153.333 507.4 163.2 507.4C171.2 507.4 178.067 508.8 183.8 511.6C189.667 514.4 194.6 517.733 198.6 521.6L190.4 532.2C186.4 528.733 182.267 526 178 524C173.733 522 169 521 163.8 521C156.333 521 149.733 522.6 144 525.8C138.267 528.867 133.8 533.267 130.6 539C127.533 544.6 126 551.133 126 558.6C126 565.933 127.533 572.4 130.6 578C133.667 583.6 138 588 143.6 591.2C149.333 594.267 155.933 595.8 163.4 595.8C169.4 595.8 174.867 594.6 179.8 592.2C184.867 589.8 189.4 586.933 193.4 583.6L200.8 594.2C195.467 599 189.467 602.733 182.8 605.4C176.267 608.067 169.4 609.4 162.2 609.4ZM272.922 609.4C264.389 609.4 256.455 607.4 249.122 603.4C241.922 599.4 236.055 593.6 231.522 586C227.122 578.4 224.922 569.267 224.922 558.6C224.922 547.667 227.122 538.4 231.522 530.8C236.055 523.2 241.922 517.4 249.122 513.4C256.455 509.4 264.389 507.4 272.922 507.4C281.455 507.4 289.322 509.4 296.522 513.4C303.855 517.4 309.722 523.2 314.122 530.8C318.655 538.4 320.922 547.667 320.922 558.6C320.922 569.267 318.655 578.4 314.122 586C309.722 593.6 303.855 599.4 296.522 603.4C289.322 607.4 281.455 609.4 272.922 609.4ZM272.922 595.8C279.189 595.8 284.655 594.267 289.322 591.2C293.989 588 297.589 583.6 300.122 578C302.655 572.4 303.922 565.933 303.922 558.6C303.922 551.133 302.655 544.6 300.122 539C297.589 533.267 293.989 528.867 289.322 525.8C284.655 522.6 279.189 521 272.922 521C266.655 521 261.189 522.6 256.522 525.8C251.989 528.867 248.389 533.267 245.722 539C243.189 544.6 241.922 551.133 241.922 558.6C241.922 565.933 243.189 572.4 245.722 578C248.389 583.6 251.989 588 256.522 591.2C261.189 594.267 266.655 595.8 272.922 595.8ZM414.044 609.4C403.777 609.4 395.91 606.467 390.444 600.6C384.977 594.6 382.244 585.867 382.244 574.4V478H349.044V464.6H398.644V575.6C398.644 582.667 400.377 587.8 403.844 591C407.31 594.2 411.91 595.8 417.644 595.8C420.444 595.8 423.31 595.467 426.244 594.8C429.177 594 432.444 592.8 436.044 591.2L440.244 603.6C435.844 605.2 431.71 606.533 427.844 607.6C423.977 608.8 419.377 609.4 414.044 609.4ZM512.766 609.4C504.232 609.4 496.299 607.4 488.966 603.4C481.766 599.4 475.899 593.6 471.366 586C466.966 578.4 464.766 569.267 464.766 558.6C464.766 547.667 466.966 538.4 471.366 530.8C475.899 523.2 481.766 517.4 488.966 513.4C496.299 509.4 504.232 507.4 512.766 507.4C521.299 507.4 529.166 509.4 536.366 513.4C543.699 517.4 549.566 523.2 553.966 530.8C558.499 538.4 560.766 547.667 560.766 558.6C560.766 569.267 558.499 578.4 553.966 586C549.566 593.6 543.699 599.4 536.366 603.4C529.166 607.4 521.299 609.4 512.766 609.4ZM512.766 595.8C519.032 595.8 524.499 594.267 529.166 591.2C533.832 588 537.432 583.6 539.966 578C542.499 572.4 543.766 565.933 543.766 558.6C543.766 551.133 542.499 544.6 539.966 539C537.432 533.267 533.832 528.867 529.166 525.8C524.499 522.6 519.032 521 512.766 521C506.499 521 501.032 522.6 496.366 525.8C491.832 528.867 488.232 533.267 485.566 539C483.032 544.6 481.766 551.133 481.766 558.6C481.766 565.933 483.032 572.4 485.566 578C488.232 583.6 491.832 588 496.366 591.2C501.032 594.267 506.499 595.8 512.766 595.8ZM601.888 607V509.8H615.488L616.888 532.8H617.488C622.554 524.933 628.821 518.733 636.288 514.2C643.754 509.667 651.954 507.4 660.888 507.4C664.488 507.4 667.821 507.733 670.888 508.4C674.088 508.933 677.154 509.933 680.088 511.4L676.288 525.6C672.954 524.4 670.088 523.533 667.688 523C665.288 522.467 662.154 522.2 658.288 522.2C650.954 522.2 643.888 524.333 637.088 528.6C630.421 532.733 624.154 539.867 618.288 550V607H601.888ZM111.6 828V689.8H125.2L126.6 702.2H127.2C131.733 697.933 136.933 694.4 142.8 691.6C148.8 688.8 154.8 687.4 160.8 687.4C169.6 687.4 176.933 689.467 182.8 693.6C188.8 697.6 193.333 703.333 196.4 710.8C199.467 718.133 201 726.867 201 737C201 747.933 198.933 757.333 194.8 765.2C190.667 773.067 185.267 779.067 178.6 783.2C171.933 787.333 164.667 789.4 156.8 789.4C152.4 789.4 147.533 788.333 142.2 786.2C137 783.933 132.2 780.8 127.8 776.8H127.2L128 795.2V828H111.6ZM154 775.6C159.733 775.6 164.867 774.067 169.4 771C173.933 767.933 177.467 763.533 180 757.8C182.667 751.933 184 745 184 737C184 729.933 183.067 723.733 181.2 718.4C179.333 712.933 176.4 708.733 172.4 705.8C168.4 702.733 163.133 701.2 156.6 701.2C152.2 701.2 147.533 702.4 142.6 704.8C137.8 707.067 132.933 710.733 128 715.8V764.2C132.667 768.333 137.333 771.267 142 773C146.8 774.733 150.8 775.6 154 775.6ZM262.122 789.4C256.122 789.4 250.589 788.333 245.522 786.2C240.455 783.933 236.455 780.733 233.522 776.6C230.589 772.467 229.122 767.533 229.122 761.8C229.122 750.867 234.589 742.6 245.522 737C256.455 731.267 274.455 727.4 299.522 725.4C299.389 721 298.455 716.933 296.722 713.2C295.122 709.467 292.455 706.533 288.722 704.4C284.989 702.133 279.989 701 273.722 701C269.589 701 265.455 701.6 261.322 702.8C257.322 703.867 253.455 705.333 249.722 707.2C246.122 708.933 242.789 710.733 239.722 712.6L233.322 701.4C236.522 699.267 240.389 697.133 244.922 695C249.589 692.733 254.589 690.933 259.922 689.6C265.255 688.133 270.789 687.4 276.522 687.4C285.455 687.4 292.789 689.067 298.522 692.4C304.389 695.733 308.722 700.4 311.522 706.4C314.455 712.267 315.922 719.267 315.922 727.4V787H302.522L301.122 773.8H300.522C295.189 778.067 289.189 781.733 282.522 784.8C275.855 787.867 269.055 789.4 262.122 789.4ZM266.522 776.2C272.122 776.2 277.655 774.933 283.122 772.4C288.589 769.867 294.055 766.333 299.522 761.8V736.2C285.655 737.4 274.722 739.067 266.722 741.2C258.855 743.333 253.255 746.067 249.922 749.4C246.722 752.6 245.122 756.333 245.122 760.6C245.122 764.2 246.122 767.2 248.122 769.6C250.122 771.867 252.722 773.533 255.922 774.6C259.255 775.667 262.789 776.2 266.522 776.2ZM414.044 789.4C403.777 789.4 395.91 786.467 390.444 780.6C384.977 774.6 382.244 765.867 382.244 754.4V658H349.044V644.6H398.644V755.6C398.644 762.667 400.377 767.8 403.844 771C407.31 774.2 411.91 775.8 417.644 775.8C420.444 775.8 423.31 775.467 426.244 774.8C429.177 774 432.444 772.8 436.044 771.2L440.244 783.6C435.844 785.2 431.71 786.533 427.844 787.6C423.977 788.8 419.377 789.4 414.044 789.4ZM533.966 789.4C523.699 789.4 515.832 786.467 510.366 780.6C504.899 774.6 502.166 765.867 502.166 754.4V658H468.966V644.6H518.566V755.6C518.566 762.667 520.299 767.8 523.766 771C527.232 774.2 531.832 775.8 537.566 775.8C540.366 775.8 543.232 775.467 546.166 774.8C549.099 774 552.366 772.8 555.966 771.2L560.166 783.6C555.766 785.2 551.632 786.533 547.766 787.6C543.899 788.8 539.299 789.4 533.966 789.4ZM638.688 789.4C628.954 789.4 620.088 787.4 612.088 783.4C604.221 779.4 597.954 773.6 593.288 766C588.621 758.267 586.288 749 586.288 738.2C586.288 727.667 588.621 718.6 593.288 711C597.954 703.4 604.021 697.6 611.488 693.6C619.088 689.467 627.221 687.4 635.888 687.4C645.221 687.4 653.154 689.333 659.688 693.2C666.354 696.933 671.421 702.2 674.888 709C678.488 715.8 680.288 723.8 680.288 733C680.288 734.867 680.221 736.667 680.088 738.4C679.954 740.133 679.754 741.667 679.488 743H597.288V730.2H669.688L665.488 734.8C665.488 723.333 662.821 714.733 657.488 709C652.288 703.267 645.221 700.4 636.288 700.4C630.288 700.4 624.688 701.867 619.488 704.8C614.421 707.733 610.354 712 607.288 717.6C604.221 723.2 602.688 730.067 602.688 738.2C602.688 746.6 604.354 753.6 607.688 759.2C611.021 764.8 615.554 769.067 621.288 772C627.021 774.8 633.488 776.2 640.688 776.2C646.554 776.2 651.821 775.4 656.488 773.8C661.288 772.067 665.888 769.8 670.288 767L676.288 777.8C671.488 781 665.954 783.733 659.688 786C653.554 788.267 646.554 789.4 638.688 789.4ZM771.409 789.4C761.943 789.4 754.476 787.733 749.009 784.4C743.543 780.933 739.609 776.2 737.209 770.2C734.943 764.2 733.809 757.2 733.809 749.2V703.2H706.409V690.8L734.409 689.8L736.609 658.6H750.209V689.8H798.009V703.2H750.209V749.4C750.209 755.133 750.943 760 752.409 764C753.876 768 756.409 771 760.009 773C763.609 775 768.543 776 774.809 776C779.476 776 783.676 775.6 787.409 774.8C791.143 774 794.743 772.933 798.209 771.6L801.809 783.6C797.409 785.2 792.743 786.533 787.809 787.6C783.009 788.8 777.543 789.4 771.409 789.4ZM878.531 789.4C868.798 789.4 859.931 787.4 851.931 783.4C844.065 779.4 837.798 773.6 833.131 766C828.465 758.267 826.131 749 826.131 738.2C826.131 727.667 828.465 718.6 833.131 711C837.798 703.4 843.865 697.6 851.331 693.6C858.931 689.467 867.065 687.4 875.731 687.4C885.065 687.4 892.998 689.333 899.531 693.2C906.198 696.933 911.265 702.2 914.731 709C918.331 715.8 920.131 723.8 920.131 733C920.131 734.867 920.065 736.667 919.931 738.4C919.798 740.133 919.598 741.667 919.331 743H837.131V730.2H909.531L905.331 734.8C905.331 723.333 902.665 714.733 897.331 709C892.131 703.267 885.065 700.4 876.131 700.4C870.131 700.4 864.531 701.867 859.331 704.8C854.265 707.733 850.198 712 847.131 717.6C844.065 723.2 842.531 730.067 842.531 738.2C842.531 746.6 844.198 753.6 847.531 759.2C850.865 764.8 855.398 769.067 861.131 772C866.865 774.8 873.331 776.2 880.531 776.2C886.398 776.2 891.665 775.4 896.331 773.8C901.131 772.067 905.731 769.8 910.131 767L916.131 777.8C911.331 781 905.798 783.733 899.531 786C893.398 788.267 886.398 789.4 878.531 789.4ZM994.453 789.4C984.986 789.4 976.12 787.867 967.853 784.8C959.586 781.733 952.52 778.2 946.653 774.2L954.253 763.4C959.853 767.4 966.053 770.6 972.853 773C979.653 775.4 987.52 776.6 996.453 776.6C1004.72 776.6 1010.85 775.067 1014.85 772C1018.99 768.933 1021.05 765.4 1021.05 761.4C1021.05 759.533 1020.65 757.8 1019.85 756.2C1019.19 754.6 1017.79 753.067 1015.65 751.6C1013.65 750.133 1010.65 748.733 1006.65 747.4C1002.65 746.067 997.32 744.733 990.653 743.4C977.986 740.733 968.453 737.133 962.053 732.6C955.786 728.067 952.653 722.2 952.653 715C952.653 707.133 956.053 700.6 962.853 695.4C969.653 690.067 979.72 687.4 993.053 687.4C1000.52 687.4 1007.72 688.667 1014.65 691.2C1021.59 693.6 1027.45 696.467 1032.25 699.8L1024.25 710.4C1019.85 707.2 1014.85 704.733 1009.25 703C1003.65 701.133 997.786 700.2 991.653 700.2C986.053 700.2 981.586 700.867 978.253 702.2C975.053 703.4 972.72 705.067 971.253 707.2C969.92 709.333 969.253 711.667 969.253 714.2C969.253 718.333 971.453 721.6 975.853 724C980.386 726.267 987.586 728.4 997.453 730.4C1008.25 732.667 1016.52 735.2 1022.25 738C1028.12 740.8 1032.12 744 1034.25 747.6C1036.52 751.2 1037.65 755.467 1037.65 760.4C1037.65 765.733 1035.99 770.6 1032.65 775C1029.32 779.267 1024.45 782.733 1018.05 785.4C1011.65 788.067 1003.79 789.4 994.453 789.4Z" fill="#949494"/>
<circle cx="1682" cy="879" r="92" fill="#949494"/>
<path d="M1686.8 907V863C1686.87 861.267 1686.93 859.4 1687 857.4C1687.13 855.333 1687.23 853.433 1687.3 851.7H1686.8C1685.8 853.233 1684.73 854.8 1683.6 856.4C1682.47 857.933 1681.37 859.467 1680.3 861L1663 882.8H1704.5V889.4H1653.9V883.9L1685.8 843.2H1694.6V907H1686.8Z" fill="white"/>
</svg>
