<svg width="1920" height="1080" viewBox="0 0 1920 1080" fill="none" xmlns="http://www.w3.org/2000/svg">
<rect width="1920" height="1080" fill="#949494"/>
<path d="M175 263.4C165.533 263.4 156.667 261.867 148.4 258.8C140.133 255.733 133.067 252.2 127.2 248.2L134.8 237.4C140.4 241.4 146.6 244.6 153.4 247C160.2 249.4 168.067 250.6 177 250.6C185.267 250.6 191.4 249.067 195.4 246C199.533 242.933 201.6 239.4 201.6 235.4C201.6 233.533 201.2 231.8 200.4 230.2C199.733 228.6 198.333 227.067 196.2 225.6C194.2 224.133 191.2 222.733 187.2 221.4C183.2 220.067 177.867 218.733 171.2 217.4C158.533 214.733 149 211.133 142.6 206.6C136.333 202.067 133.2 196.2 133.2 189C133.2 181.133 136.6 174.6 143.4 169.4C150.2 164.067 160.267 161.4 173.6 161.4C181.067 161.4 188.267 162.667 195.2 165.2C202.133 167.6 208 170.467 212.8 173.8L204.8 184.4C200.4 181.2 195.4 178.733 189.8 177C184.2 175.133 178.333 174.2 172.2 174.2C166.6 174.2 162.133 174.867 158.8 176.2C155.6 177.4 153.267 179.067 151.8 181.2C150.467 183.333 149.8 185.667 149.8 188.2C149.8 192.333 152 195.6 156.4 198C160.933 200.267 168.133 202.4 178 204.4C188.8 206.667 197.067 209.2 202.8 212C208.667 214.8 212.667 218 214.8 221.6C217.067 225.2 218.2 229.467 218.2 234.4C218.2 239.733 216.533 244.6 213.2 249C209.867 253.267 205 256.733 198.6 259.4C192.2 262.067 184.333 263.4 175 263.4ZM251.522 302V163.8H265.122L266.522 176.2H267.122C271.655 171.933 276.855 168.4 282.722 165.6C288.722 162.8 294.722 161.4 300.722 161.4C309.522 161.4 316.855 163.467 322.722 167.6C328.722 171.6 333.255 177.333 336.322 184.8C339.389 192.133 340.922 200.867 340.922 211C340.922 221.933 338.855 231.333 334.722 239.2C330.589 247.067 325.189 253.067 318.522 257.2C311.855 261.333 304.589 263.4 296.722 263.4C292.322 263.4 287.455 262.333 282.122 260.2C276.922 257.933 272.122 254.8 267.722 250.8H267.122L267.922 269.2V302H251.522ZM293.922 249.6C299.655 249.6 304.789 248.067 309.322 245C313.855 241.933 317.389 237.533 319.922 231.8C322.589 225.933 323.922 219 323.922 211C323.922 203.933 322.989 197.733 321.122 192.4C319.255 186.933 316.322 182.733 312.322 179.8C308.322 176.733 303.055 175.2 296.522 175.2C292.122 175.2 287.455 176.4 282.522 178.8C277.722 181.067 272.855 184.733 267.922 189.8V238.2C272.589 242.333 277.255 245.267 281.922 247C286.722 248.733 290.722 249.6 293.922 249.6ZM402.044 263.4C396.044 263.4 390.51 262.333 385.444 260.2C380.377 257.933 376.377 254.733 373.444 250.6C370.51 246.467 369.044 241.533 369.044 235.8C369.044 224.867 374.51 216.6 385.444 211C396.377 205.267 414.377 201.4 439.444 199.4C439.31 195 438.377 190.933 436.644 187.2C435.044 183.467 432.377 180.533 428.644 178.4C424.91 176.133 419.91 175 413.644 175C409.51 175 405.377 175.6 401.244 176.8C397.244 177.867 393.377 179.333 389.644 181.2C386.044 182.933 382.71 184.733 379.644 186.6L373.244 175.4C376.444 173.267 380.31 171.133 384.844 169C389.51 166.733 394.51 164.933 399.844 163.6C405.177 162.133 410.71 161.4 416.444 161.4C425.377 161.4 432.71 163.067 438.444 166.4C444.31 169.733 448.644 174.4 451.444 180.4C454.377 186.267 455.844 193.267 455.844 201.4V261H442.444L441.044 247.8H440.444C435.11 252.067 429.11 255.733 422.444 258.8C415.777 261.867 408.977 263.4 402.044 263.4ZM406.444 250.2C412.044 250.2 417.577 248.933 423.044 246.4C428.51 243.867 433.977 240.333 439.444 235.8V210.2C425.577 211.4 414.644 213.067 406.644 215.2C398.777 217.333 393.177 220.067 389.844 223.4C386.644 226.6 385.044 230.333 385.044 234.6C385.044 238.2 386.044 241.2 388.044 243.6C390.044 245.867 392.644 247.533 395.844 248.6C399.177 249.667 402.71 250.2 406.444 250.2ZM541.966 263.4C531.832 263.4 522.699 261.4 514.566 257.4C506.566 253.4 500.232 247.6 495.566 240C491.032 232.4 488.766 223.267 488.766 212.6C488.766 201.667 491.232 192.4 496.166 184.8C501.099 177.2 507.632 171.4 515.766 167.4C524.032 163.4 533.099 161.4 542.966 161.4C550.966 161.4 557.832 162.8 563.566 165.6C569.432 168.4 574.366 171.733 578.366 175.6L570.166 186.2C566.166 182.733 562.032 180 557.766 178C553.499 176 548.766 175 543.566 175C536.099 175 529.499 176.6 523.766 179.8C518.032 182.867 513.566 187.267 510.366 193C507.299 198.6 505.766 205.133 505.766 212.6C505.766 219.933 507.299 226.4 510.366 232C513.432 237.6 517.766 242 523.366 245.2C529.099 248.267 535.699 249.8 543.166 249.8C549.166 249.8 554.632 248.6 559.566 246.2C564.632 243.8 569.166 240.933 573.166 237.6L580.566 248.2C575.232 253 569.232 256.733 562.566 259.4C556.032 262.067 549.166 263.4 541.966 263.4ZM658.688 263.4C648.954 263.4 640.088 261.4 632.088 257.4C624.221 253.4 617.954 247.6 613.288 240C608.621 232.267 606.288 223 606.288 212.2C606.288 201.667 608.621 192.6 613.288 185C617.954 177.4 624.021 171.6 631.488 167.6C639.088 163.467 647.221 161.4 655.888 161.4C665.221 161.4 673.154 163.333 679.688 167.2C686.354 170.933 691.421 176.2 694.888 183C698.488 189.8 700.288 197.8 700.288 207C700.288 208.867 700.221 210.667 700.088 212.4C699.954 214.133 699.754 215.667 699.488 217H617.288V204.2H689.688L685.488 208.8C685.488 197.333 682.821 188.733 677.488 183C672.288 177.267 665.221 174.4 656.288 174.4C650.288 174.4 644.688 175.867 639.488 178.8C634.421 181.733 630.354 186 627.288 191.6C624.221 197.2 622.688 204.067 622.688 212.2C622.688 220.6 624.354 227.6 627.688 233.2C631.021 238.8 635.554 243.067 641.288 246C647.021 248.8 653.488 250.2 660.688 250.2C666.554 250.2 671.821 249.4 676.488 247.8C681.288 246.067 685.888 243.8 690.288 241L696.288 251.8C691.488 255 685.954 257.733 679.688 260C673.554 262.267 666.554 263.4 658.688 263.4ZM774.609 263.4C765.143 263.4 756.276 261.867 748.009 258.8C739.743 255.733 732.676 252.2 726.809 248.2L734.409 237.4C740.009 241.4 746.209 244.6 753.009 247C759.809 249.4 767.676 250.6 776.609 250.6C784.876 250.6 791.009 249.067 795.009 246C799.143 242.933 801.209 239.4 801.209 235.4C801.209 233.533 800.809 231.8 800.009 230.2C799.343 228.6 797.943 227.067 795.809 225.6C793.809 224.133 790.809 222.733 786.809 221.4C782.809 220.067 777.476 218.733 770.809 217.4C758.143 214.733 748.609 211.133 742.209 206.6C735.943 202.067 732.809 196.2 732.809 189C732.809 181.133 736.209 174.6 743.009 169.4C749.809 164.067 759.876 161.4 773.209 161.4C780.676 161.4 787.876 162.667 794.809 165.2C801.743 167.6 807.609 170.467 812.409 173.8L804.409 184.4C800.009 181.2 795.009 178.733 789.409 177C783.809 175.133 777.943 174.2 771.809 174.2C766.209 174.2 761.743 174.867 758.409 176.2C755.209 177.4 752.876 179.067 751.409 181.2C750.076 183.333 749.409 185.667 749.409 188.2C749.409 192.333 751.609 195.6 756.009 198C760.543 200.267 767.743 202.4 777.609 204.4C788.409 206.667 796.676 209.2 802.409 212C808.276 214.8 812.276 218 814.409 221.6C816.676 225.2 817.809 229.467 817.809 234.4C817.809 239.733 816.143 244.6 812.809 249C809.476 253.267 804.609 256.733 798.209 259.4C791.809 262.067 783.943 263.4 774.609 263.4ZM851.131 261V118.6H867.531V157.4L866.531 180.4H867.131C872.065 175.067 877.465 170.6 883.331 167C889.198 163.267 895.931 161.4 903.531 161.4C914.998 161.4 923.465 164.733 928.931 171.4C934.398 178.067 937.131 187.8 937.131 200.6V261H920.731V202.8C920.731 193.6 918.998 186.8 915.531 182.4C912.065 177.867 906.331 175.6 898.331 175.6C892.598 175.6 887.465 177.067 882.931 180C878.398 182.933 873.265 187.333 867.531 193.2V261H851.131ZM1015.65 261V177.2H970.453V163.8H1032.05V261H1015.65ZM1022.05 143.4C1018.32 143.4 1015.19 142.267 1012.65 140C1010.12 137.6 1008.85 134.467 1008.85 130.6C1008.85 126.733 1010.12 123.667 1012.65 121.4C1015.19 119 1018.32 117.8 1022.05 117.8C1025.79 117.8 1028.92 119 1031.45 121.4C1033.99 123.667 1035.25 126.733 1035.25 130.6C1035.25 134.467 1033.99 137.6 1031.45 140C1028.92 142.267 1025.79 143.4 1022.05 143.4ZM1090.98 302V163.8H1104.58L1105.98 176.2H1106.58C1111.11 171.933 1116.31 168.4 1122.18 165.6C1128.18 162.8 1134.18 161.4 1140.18 161.4C1148.98 161.4 1156.31 163.467 1162.18 167.6C1168.18 171.6 1172.71 177.333 1175.78 184.8C1178.84 192.133 1180.38 200.867 1180.38 211C1180.38 221.933 1178.31 231.333 1174.18 239.2C1170.04 247.067 1164.64 253.067 1157.98 257.2C1151.31 261.333 1144.04 263.4 1136.18 263.4C1131.78 263.4 1126.91 262.333 1121.58 260.2C1116.38 257.933 1111.58 254.8 1107.18 250.8H1106.58L1107.38 269.2V302H1090.98ZM1133.38 249.6C1139.11 249.6 1144.24 248.067 1148.78 245C1153.31 241.933 1156.84 237.533 1159.38 231.8C1162.04 225.933 1163.38 219 1163.38 211C1163.38 203.933 1162.44 197.733 1160.58 192.4C1158.71 186.933 1155.78 182.733 1151.78 179.8C1147.78 176.733 1142.51 175.2 1135.98 175.2C1131.58 175.2 1126.91 176.4 1121.98 178.8C1117.18 181.067 1112.31 184.733 1107.38 189.8V238.2C1112.04 242.333 1116.71 245.267 1121.38 247C1126.18 248.733 1130.18 249.6 1133.38 249.6ZM176.2 441V357.2H131V343.8H192.6V441H176.2ZM182.6 323.4C178.867 323.4 175.733 322.267 173.2 320C170.667 317.6 169.4 314.467 169.4 310.6C169.4 306.733 170.667 303.667 173.2 301.4C175.733 299 178.867 297.8 182.6 297.8C186.333 297.8 189.467 299 192 301.4C194.533 303.667 195.8 306.733 195.8 310.6C195.8 314.467 194.533 317.6 192 320C189.467 322.267 186.333 323.4 182.6 323.4ZM251.522 441V343.8H265.122L266.522 360.4H267.322C272.389 354.933 277.855 350.4 283.722 346.8C289.589 343.2 296.322 341.4 303.922 341.4C315.389 341.4 323.855 344.733 329.322 351.4C334.789 358.067 337.522 367.8 337.522 380.6V441H321.122V382.8C321.122 373.6 319.389 366.8 315.922 362.4C312.455 357.867 306.722 355.6 298.722 355.6C292.989 355.6 287.855 357.067 283.322 360C278.789 362.933 273.655 367.333 267.922 373.2V441H251.522ZM414.844 443.4C405.377 443.4 396.51 441.867 388.244 438.8C379.977 435.733 372.91 432.2 367.044 428.2L374.644 417.4C380.244 421.4 386.444 424.6 393.244 427C400.044 429.4 407.91 430.6 416.844 430.6C425.11 430.6 431.244 429.067 435.244 426C439.377 422.933 441.444 419.4 441.444 415.4C441.444 413.533 441.044 411.8 440.244 410.2C439.577 408.6 438.177 407.067 436.044 405.6C434.044 404.133 431.044 402.733 427.044 401.4C423.044 400.067 417.71 398.733 411.044 397.4C398.377 394.733 388.844 391.133 382.444 386.6C376.177 382.067 373.044 376.2 373.044 369C373.044 361.133 376.444 354.6 383.244 349.4C390.044 344.067 400.11 341.4 413.444 341.4C420.91 341.4 428.11 342.667 435.044 345.2C441.977 347.6 447.844 350.467 452.644 353.8L444.644 364.4C440.244 361.2 435.244 358.733 429.644 357C424.044 355.133 418.177 354.2 412.044 354.2C406.444 354.2 401.977 354.867 398.644 356.2C395.444 357.4 393.11 359.067 391.644 361.2C390.31 363.333 389.644 365.667 389.644 368.2C389.644 372.333 391.844 375.6 396.244 378C400.777 380.267 407.977 382.4 417.844 384.4C428.644 386.667 436.91 389.2 442.644 392C448.51 394.8 452.51 398 454.644 401.6C456.91 405.2 458.044 409.467 458.044 414.4C458.044 419.733 456.377 424.6 453.044 429C449.71 433.267 444.844 436.733 438.444 439.4C432.044 442.067 424.177 443.4 414.844 443.4ZM551.566 443.4C542.099 443.4 534.632 441.733 529.166 438.4C523.699 434.933 519.766 430.2 517.366 424.2C515.099 418.2 513.966 411.2 513.966 403.2V357.2H486.566V344.8L514.566 343.8L516.766 312.6H530.366V343.8H578.166V357.2H530.366V403.4C530.366 409.133 531.099 414 532.566 418C534.032 422 536.566 425 540.166 427C543.766 429 548.699 430 554.966 430C559.632 430 563.832 429.6 567.566 428.8C571.299 428 574.899 426.933 578.366 425.6L581.966 437.6C577.566 439.2 572.899 440.533 567.966 441.6C563.166 442.8 557.699 443.4 551.566 443.4ZM621.888 441V343.8H635.488L636.888 366.8H637.488C642.554 358.933 648.821 352.733 656.288 348.2C663.754 343.667 671.954 341.4 680.888 341.4C684.488 341.4 687.821 341.733 690.888 342.4C694.088 342.933 697.154 343.933 700.088 345.4L696.288 359.6C692.954 358.4 690.088 357.533 687.688 357C685.288 356.467 682.154 356.2 678.288 356.2C670.954 356.2 663.888 358.333 657.088 362.6C650.421 366.733 644.154 373.867 638.288 384V441H621.888ZM761.809 443.4C750.209 443.4 741.676 440.067 736.209 433.4C730.743 426.733 728.009 417 728.009 404.2V343.8H744.609V402C744.609 411.2 746.276 418.067 749.609 422.6C753.076 427 758.876 429.2 767.009 429.2C772.609 429.2 777.676 427.8 782.209 425C786.876 422.067 791.876 417.467 797.209 411.2V343.8H813.609V441H800.209L798.809 424H798.009C793.076 429.6 787.676 434.267 781.809 438C775.943 441.6 769.276 443.4 761.809 443.4ZM901.731 443.4C891.598 443.4 882.465 441.4 874.331 437.4C866.331 433.4 859.998 427.6 855.331 420C850.798 412.4 848.531 403.267 848.531 392.6C848.531 381.667 850.998 372.4 855.931 364.8C860.865 357.2 867.398 351.4 875.531 347.4C883.798 343.4 892.865 341.4 902.731 341.4C910.731 341.4 917.598 342.8 923.331 345.6C929.198 348.4 934.131 351.733 938.131 355.6L929.931 366.2C925.931 362.733 921.798 360 917.531 358C913.265 356 908.531 355 903.331 355C895.865 355 889.265 356.6 883.531 359.8C877.798 362.867 873.331 367.267 870.131 373C867.065 378.6 865.531 385.133 865.531 392.6C865.531 399.933 867.065 406.4 870.131 412C873.198 417.6 877.531 422 883.131 425.2C888.865 428.267 895.465 429.8 902.931 429.8C908.931 429.8 914.398 428.6 919.331 426.2C924.398 423.8 928.931 420.933 932.931 417.6L940.331 428.2C934.998 433 928.998 436.733 922.331 439.4C915.798 442.067 908.931 443.4 901.731 443.4ZM1031.25 443.4C1021.79 443.4 1014.32 441.733 1008.85 438.4C1003.39 434.933 999.453 430.2 997.053 424.2C994.786 418.2 993.653 411.2 993.653 403.2V357.2H966.253V344.8L994.253 343.8L996.453 312.6H1010.05V343.8H1057.85V357.2H1010.05V403.4C1010.05 409.133 1010.79 414 1012.25 418C1013.72 422 1016.25 425 1019.85 427C1023.45 429 1028.39 430 1034.65 430C1039.32 430 1043.52 429.6 1047.25 428.8C1050.99 428 1054.59 426.933 1058.05 425.6L1061.65 437.6C1057.25 439.2 1052.59 440.533 1047.65 441.6C1042.85 442.8 1037.39 443.4 1031.25 443.4ZM1135.58 441V357.2H1090.38V343.8H1151.98V441H1135.58ZM1141.98 323.4C1138.24 323.4 1135.11 322.267 1132.58 320C1130.04 317.6 1128.78 314.467 1128.78 310.6C1128.78 306.733 1130.04 303.667 1132.58 301.4C1135.11 299 1138.24 297.8 1141.98 297.8C1145.71 297.8 1148.84 299 1151.38 301.4C1153.91 303.667 1155.18 306.733 1155.18 310.6C1155.18 314.467 1153.91 317.6 1151.38 320C1148.84 322.267 1145.71 323.4 1141.98 323.4ZM1252.3 443.4C1243.76 443.4 1235.83 441.4 1228.5 437.4C1221.3 433.4 1215.43 427.6 1210.9 420C1206.5 412.4 1204.3 403.267 1204.3 392.6C1204.3 381.667 1206.5 372.4 1210.9 364.8C1215.43 357.2 1221.3 351.4 1228.5 347.4C1235.83 343.4 1243.76 341.4 1252.3 341.4C1260.83 341.4 1268.7 343.4 1275.9 347.4C1283.23 351.4 1289.1 357.2 1293.5 364.8C1298.03 372.4 1300.3 381.667 1300.3 392.6C1300.3 403.267 1298.03 412.4 1293.5 420C1289.1 427.6 1283.23 433.4 1275.9 437.4C1268.7 441.4 1260.83 443.4 1252.3 443.4ZM1252.3 429.8C1258.56 429.8 1264.03 428.267 1268.7 425.2C1273.36 422 1276.96 417.6 1279.5 412C1282.03 406.4 1283.3 399.933 1283.3 392.6C1283.3 385.133 1282.03 378.6 1279.5 373C1276.96 367.267 1273.36 362.867 1268.7 359.8C1264.03 356.6 1258.56 355 1252.3 355C1246.03 355 1240.56 356.6 1235.9 359.8C1231.36 362.867 1227.76 367.267 1225.1 373C1222.56 378.6 1221.3 385.133 1221.3 392.6C1221.3 399.933 1222.56 406.4 1225.1 412C1227.76 417.6 1231.36 422 1235.9 425.2C1240.56 428.267 1246.03 429.8 1252.3 429.8ZM1330.82 441V343.8H1344.42L1345.82 360.4H1346.62C1351.69 354.933 1357.15 350.4 1363.02 346.8C1368.89 343.2 1375.62 341.4 1383.22 341.4C1394.69 341.4 1403.15 344.733 1408.62 351.4C1414.09 358.067 1416.82 367.8 1416.82 380.6V441H1400.42V382.8C1400.42 373.6 1398.69 366.8 1395.22 362.4C1391.75 357.867 1386.02 355.6 1378.02 355.6C1372.29 355.6 1367.15 357.067 1362.62 360C1358.09 362.933 1352.95 367.333 1347.22 373.2V441H1330.82ZM124.6 621V523.8H137.8L139.2 536.6H139.6C142.133 532.067 145.067 528.4 148.4 525.6C151.733 522.8 156.2 521.4 161.8 521.4C166.6 521.4 170.533 522.8 173.6 525.6C176.667 528.4 178.867 532.6 180.2 538.2C183 533 186.067 528.933 189.4 526C192.867 522.933 197.4 521.4 203 521.4C209.8 521.4 215.067 524 218.8 529.2C222.667 534.267 224.6 541.667 224.6 551.4V621H208.2V552.6C208.2 541.267 204.733 535.6 197.8 535.6C194.467 535.6 191.667 536.867 189.4 539.4C187.267 541.8 184.867 545.533 182.2 550.6V621H167V552.6C167 547 166.2 542.8 164.6 540C163.133 537.067 160.6 535.6 157 535.6C153.667 535.6 150.733 536.867 148.2 539.4C145.8 541.8 143.4 545.533 141 550.6V621H124.6ZM282.122 623.4C276.122 623.4 270.589 622.333 265.522 620.2C260.455 617.933 256.455 614.733 253.522 610.6C250.589 606.467 249.122 601.533 249.122 595.8C249.122 584.867 254.589 576.6 265.522 571C276.455 565.267 294.455 561.4 319.522 559.4C319.389 555 318.455 550.933 316.722 547.2C315.122 543.467 312.455 540.533 308.722 538.4C304.989 536.133 299.989 535 293.722 535C289.589 535 285.455 535.6 281.322 536.8C277.322 537.867 273.455 539.333 269.722 541.2C266.122 542.933 262.789 544.733 259.722 546.6L253.322 535.4C256.522 533.267 260.389 531.133 264.922 529C269.589 526.733 274.589 524.933 279.922 523.6C285.255 522.133 290.789 521.4 296.522 521.4C305.455 521.4 312.789 523.067 318.522 526.4C324.389 529.733 328.722 534.4 331.522 540.4C334.455 546.267 335.922 553.267 335.922 561.4V621H322.522L321.122 607.8H320.522C315.189 612.067 309.189 615.733 302.522 618.8C295.855 621.867 289.055 623.4 282.122 623.4ZM286.522 610.2C292.122 610.2 297.655 608.933 303.122 606.4C308.589 603.867 314.055 600.333 319.522 595.8V570.2C305.655 571.4 294.722 573.067 286.722 575.2C278.855 577.333 273.255 580.067 269.922 583.4C266.722 586.6 265.122 590.333 265.122 594.6C265.122 598.2 266.122 601.2 268.122 603.6C270.122 605.867 272.722 607.533 275.922 608.6C279.255 609.667 282.789 610.2 286.522 610.2ZM371.444 621V523.8H385.044L386.444 540.4H387.244C392.31 534.933 397.777 530.4 403.644 526.8C409.51 523.2 416.244 521.4 423.844 521.4C435.31 521.4 443.777 524.733 449.244 531.4C454.71 538.067 457.444 547.8 457.444 560.6V621H441.044V562.8C441.044 553.6 439.31 546.8 435.844 542.4C432.377 537.867 426.644 535.6 418.644 535.6C412.91 535.6 407.777 537.067 403.244 540C398.71 542.933 393.577 547.333 387.844 553.2V621H371.444ZM521.966 623.4C510.366 623.4 501.832 620.067 496.366 613.4C490.899 606.733 488.166 597 488.166 584.2V523.8H504.766V582C504.766 591.2 506.432 598.067 509.766 602.6C513.232 607 519.032 609.2 527.166 609.2C532.766 609.2 537.832 607.8 542.366 605C547.032 602.067 552.032 597.467 557.366 591.2V523.8H573.766V621H560.366L558.966 604H558.166C553.232 609.6 547.832 614.267 541.966 618C536.099 621.6 529.432 623.4 521.966 623.4ZM641.888 623.4C635.888 623.4 630.354 622.333 625.288 620.2C620.221 617.933 616.221 614.733 613.288 610.6C610.354 606.467 608.888 601.533 608.888 595.8C608.888 584.867 614.354 576.6 625.288 571C636.221 565.267 654.221 561.4 679.288 559.4C679.154 555 678.221 550.933 676.488 547.2C674.888 543.467 672.221 540.533 668.488 538.4C664.754 536.133 659.754 535 653.488 535C649.354 535 645.221 535.6 641.088 536.8C637.088 537.867 633.221 539.333 629.488 541.2C625.888 542.933 622.554 544.733 619.488 546.6L613.088 535.4C616.288 533.267 620.154 531.133 624.688 529C629.354 526.733 634.354 524.933 639.688 523.6C645.021 522.133 650.554 521.4 656.288 521.4C665.221 521.4 672.554 523.067 678.288 526.4C684.154 529.733 688.488 534.4 691.288 540.4C694.221 546.267 695.688 553.267 695.688 561.4V621H682.288L680.888 607.8H680.288C674.954 612.067 668.954 615.733 662.288 618.8C655.621 621.867 648.821 623.4 641.888 623.4ZM646.288 610.2C651.888 610.2 657.421 608.933 662.888 606.4C668.354 603.867 673.821 600.333 679.288 595.8V570.2C665.421 571.4 654.488 573.067 646.488 575.2C638.621 577.333 633.021 580.067 629.688 583.4C626.488 586.6 624.888 590.333 624.888 594.6C624.888 598.2 625.888 601.2 627.888 603.6C629.888 605.867 632.488 607.533 635.688 608.6C639.021 609.667 642.554 610.2 646.288 610.2ZM793.809 623.4C783.543 623.4 775.676 620.467 770.209 614.6C764.743 608.6 762.009 599.867 762.009 588.4V492H728.809V478.6H778.409V589.6C778.409 596.667 780.143 601.8 783.609 605C787.076 608.2 791.676 609.8 797.409 609.8C800.209 609.8 803.076 609.467 806.009 608.8C808.943 608 812.209 606.8 815.809 605.2L820.009 617.6C815.609 619.2 811.476 620.533 807.609 621.6C803.743 622.8 799.143 623.4 793.809 623.4Z" fill="white"/>
<circle cx="1682" cy="879" r="92" fill="white"/>
<path d="M1683.6 914.2C1679.8 914.2 1676.47 913.8 1673.6 913C1670.73 912.133 1668.23 911.033 1666.1 909.7C1664.03 908.367 1662.2 906.967 1660.6 905.5L1664.7 900.1C1666.1 901.367 1667.63 902.567 1669.3 903.7C1671.03 904.767 1673 905.667 1675.2 906.4C1677.4 907.067 1679.9 907.4 1682.7 907.4C1685.7 907.4 1688.43 906.8 1690.9 905.6C1693.37 904.4 1695.3 902.733 1696.7 900.6C1698.17 898.4 1698.9 895.8 1698.9 892.8C1698.9 888.4 1697.47 884.967 1694.6 882.5C1691.73 880.033 1687.93 878.8 1683.2 878.8C1680.53 878.8 1678.27 879.133 1676.4 879.8C1674.53 880.467 1672.47 881.433 1670.2 882.7L1665.8 879.9L1667.9 849.2H1704V856.3H1675.2L1673.5 875.2C1675.3 874.4 1677.1 873.767 1678.9 873.3C1680.77 872.833 1682.9 872.6 1685.3 872.6C1689.37 872.6 1693.07 873.3 1696.4 874.7C1699.73 876.1 1702.37 878.3 1704.3 881.3C1706.23 884.233 1707.2 888 1707.2 892.6C1707.2 897.2 1706.07 901.133 1703.8 904.4C1701.6 907.6 1698.7 910.033 1695.1 911.7C1691.5 913.367 1687.67 914.2 1683.6 914.2Z" fill="black"/>
</svg>
