<svg width="1920" height="1080" viewBox="0 0 1920 1080" fill="none" xmlns="http://www.w3.org/2000/svg">
<rect width="1920" height="1080" fill="#949494"/>
<path d="M131.6 261V118.6H148V157.4L147 180.4H147.6C152.533 175.067 157.933 170.6 163.8 167C169.667 163.267 176.4 161.4 184 161.4C195.467 161.4 203.933 164.733 209.4 171.4C214.867 178.067 217.6 187.8 217.6 200.6V261H201.2V202.8C201.2 193.6 199.467 186.8 196 182.4C192.533 177.867 186.8 175.6 178.8 175.6C173.067 175.6 167.933 177.067 163.4 180C158.867 182.933 153.733 187.333 148 193.2V261H131.6ZM282.122 263.4C270.522 263.4 261.989 260.067 256.522 253.4C251.055 246.733 248.322 237 248.322 224.2V163.8H264.922V222C264.922 231.2 266.589 238.067 269.922 242.6C273.389 247 279.189 249.2 287.322 249.2C292.922 249.2 297.989 247.8 302.522 245C307.189 242.067 312.189 237.467 317.522 231.2V163.8H333.922V261H320.522L319.122 244H318.322C313.389 249.6 307.989 254.267 302.122 258C296.255 261.6 289.589 263.4 282.122 263.4ZM364.444 261V163.8H377.644L379.044 176.6H379.444C381.977 172.067 384.91 168.4 388.244 165.6C391.577 162.8 396.044 161.4 401.644 161.4C406.444 161.4 410.377 162.8 413.444 165.6C416.51 168.4 418.71 172.6 420.044 178.2C422.844 173 425.91 168.933 429.244 166C432.71 162.933 437.244 161.4 442.844 161.4C449.644 161.4 454.91 164 458.644 169.2C462.51 174.267 464.444 181.667 464.444 191.4V261H448.044V192.6C448.044 181.267 444.577 175.6 437.644 175.6C434.31 175.6 431.51 176.867 429.244 179.4C427.11 181.8 424.71 185.533 422.044 190.6V261H406.844V192.6C406.844 187 406.044 182.8 404.444 180C402.977 177.067 400.444 175.6 396.844 175.6C393.51 175.6 390.577 176.867 388.044 179.4C385.644 181.8 383.244 185.533 380.844 190.6V261H364.444ZM521.966 263.4C515.966 263.4 510.432 262.333 505.366 260.2C500.299 257.933 496.299 254.733 493.366 250.6C490.432 246.467 488.966 241.533 488.966 235.8C488.966 224.867 494.432 216.6 505.366 211C516.299 205.267 534.299 201.4 559.366 199.4C559.232 195 558.299 190.933 556.566 187.2C554.966 183.467 552.299 180.533 548.566 178.4C544.832 176.133 539.832 175 533.566 175C529.432 175 525.299 175.6 521.166 176.8C517.166 177.867 513.299 179.333 509.566 181.2C505.966 182.933 502.632 184.733 499.566 186.6L493.166 175.4C496.366 173.267 500.232 171.133 504.766 169C509.432 166.733 514.432 164.933 519.766 163.6C525.099 162.133 530.632 161.4 536.366 161.4C545.299 161.4 552.632 163.067 558.366 166.4C564.232 169.733 568.566 174.4 571.366 180.4C574.299 186.267 575.766 193.267 575.766 201.4V261H562.366L560.966 247.8H560.366C555.032 252.067 549.032 255.733 542.366 258.8C535.699 261.867 528.899 263.4 521.966 263.4ZM526.366 250.2C531.966 250.2 537.499 248.933 542.966 246.4C548.432 243.867 553.899 240.333 559.366 235.8V210.2C545.499 211.4 534.566 213.067 526.566 215.2C518.699 217.333 513.099 220.067 509.766 223.4C506.566 226.6 504.966 230.333 504.966 234.6C504.966 238.2 505.966 241.2 507.966 243.6C509.966 245.867 512.566 247.533 515.766 248.6C519.099 249.667 522.632 250.2 526.366 250.2ZM611.288 261V163.8H624.888L626.288 180.4H627.088C632.154 174.933 637.621 170.4 643.488 166.8C649.354 163.2 656.088 161.4 663.688 161.4C675.154 161.4 683.621 164.733 689.088 171.4C694.554 178.067 697.288 187.8 697.288 200.6V261H680.888V202.8C680.888 193.6 679.154 186.8 675.688 182.4C672.221 177.867 666.488 175.6 658.488 175.6C652.754 175.6 647.621 177.067 643.088 180C638.554 182.933 633.421 187.333 627.688 193.2V261H611.288ZM911.331 263.4C901.865 263.4 894.398 261.733 888.931 258.4C883.465 254.933 879.531 250.2 877.131 244.2C874.865 238.2 873.731 231.2 873.731 223.2V177.2H846.331V164.8L874.331 163.8L876.531 132.6H890.131V163.8H937.931V177.2H890.131V223.4C890.131 229.133 890.865 234 892.331 238C893.798 242 896.331 245 899.931 247C903.531 249 908.465 250 914.731 250C919.398 250 923.598 249.6 927.331 248.8C931.065 248 934.665 246.933 938.131 245.6L941.731 257.6C937.331 259.2 932.665 260.533 927.731 261.6C922.931 262.8 917.465 263.4 911.331 263.4ZM1012.45 263.4C1003.92 263.4 995.986 261.4 988.653 257.4C981.453 253.4 975.586 247.6 971.053 240C966.653 232.4 964.453 223.267 964.453 212.6C964.453 201.667 966.653 192.4 971.053 184.8C975.586 177.2 981.453 171.4 988.653 167.4C995.986 163.4 1003.92 161.4 1012.45 161.4C1020.99 161.4 1028.85 163.4 1036.05 167.4C1043.39 171.4 1049.25 177.2 1053.65 184.8C1058.19 192.4 1060.45 201.667 1060.45 212.6C1060.45 223.267 1058.19 232.4 1053.65 240C1049.25 247.6 1043.39 253.4 1036.05 257.4C1028.85 261.4 1020.99 263.4 1012.45 263.4ZM1012.45 249.8C1018.72 249.8 1024.19 248.267 1028.85 245.2C1033.52 242 1037.12 237.6 1039.65 232C1042.19 226.4 1043.45 219.933 1043.45 212.6C1043.45 205.133 1042.19 198.6 1039.65 193C1037.12 187.267 1033.52 182.867 1028.85 179.8C1024.19 176.6 1018.72 175 1012.45 175C1006.19 175 1000.72 176.6 996.053 179.8C991.52 182.867 987.92 187.267 985.253 193C982.72 198.6 981.453 205.133 981.453 212.6C981.453 219.933 982.72 226.4 985.253 232C987.92 237.6 991.52 242 996.053 245.2C1000.72 248.267 1006.19 249.8 1012.45 249.8ZM1121.58 263.4C1109.98 263.4 1101.44 260.067 1095.98 253.4C1090.51 246.733 1087.78 237 1087.78 224.2V163.8H1104.38V222C1104.38 231.2 1106.04 238.067 1109.38 242.6C1112.84 247 1118.64 249.2 1126.78 249.2C1132.38 249.2 1137.44 247.8 1141.98 245C1146.64 242.067 1151.64 237.467 1156.98 231.2V163.8H1173.37V261H1159.98L1158.58 244H1157.78C1152.84 249.6 1147.44 254.267 1141.58 258C1135.71 261.6 1129.04 263.4 1121.58 263.4ZM1261.5 263.4C1251.36 263.4 1242.23 261.4 1234.1 257.4C1226.1 253.4 1219.76 247.6 1215.1 240C1210.56 232.4 1208.3 223.267 1208.3 212.6C1208.3 201.667 1210.76 192.4 1215.7 184.8C1220.63 177.2 1227.16 171.4 1235.3 167.4C1243.56 163.4 1252.63 161.4 1262.5 161.4C1270.5 161.4 1277.36 162.8 1283.1 165.6C1288.96 168.4 1293.9 171.733 1297.9 175.6L1289.7 186.2C1285.7 182.733 1281.56 180 1277.3 178C1273.03 176 1268.3 175 1263.1 175C1255.63 175 1249.03 176.6 1243.3 179.8C1237.56 182.867 1233.1 187.267 1229.9 193C1226.83 198.6 1225.3 205.133 1225.3 212.6C1225.3 219.933 1226.83 226.4 1229.9 232C1232.96 237.6 1237.3 242 1242.9 245.2C1248.63 248.267 1255.23 249.8 1262.7 249.8C1268.7 249.8 1274.16 248.6 1279.1 246.2C1284.16 243.8 1288.7 240.933 1292.7 237.6L1300.1 248.2C1294.76 253 1288.76 256.733 1282.1 259.4C1275.56 262.067 1268.7 263.4 1261.5 263.4ZM1330.82 261V118.6H1347.22V157.4L1346.22 180.4H1346.82C1351.75 175.067 1357.15 170.6 1363.02 167C1368.89 163.267 1375.62 161.4 1383.22 161.4C1394.69 161.4 1403.15 164.733 1408.62 171.4C1414.09 178.067 1416.82 187.8 1416.82 200.6V261H1400.42V202.8C1400.42 193.6 1398.69 186.8 1395.22 182.4C1391.75 177.867 1386.02 175.6 1378.02 175.6C1372.29 175.6 1367.15 177.067 1362.62 180C1358.09 182.933 1352.95 187.333 1347.22 193.2V261H1330.82Z" fill="white"/>
<circle cx="1682" cy="879" r="92" fill="white"/>
<path d="M1682.7 911.2C1679.03 911.2 1675.77 910.767 1672.9 909.9C1670.03 909.033 1667.5 907.933 1665.3 906.6C1663.17 905.267 1661.3 903.8 1659.7 902.2L1663.9 896.8C1666.03 898.8 1668.6 900.567 1671.6 902.1C1674.6 903.633 1678.13 904.4 1682.2 904.4C1685.13 904.4 1687.73 903.933 1690 903C1692.33 902 1694.17 900.633 1695.5 898.9C1696.83 897.1 1697.5 895.033 1697.5 892.7C1697.5 890.167 1696.73 887.967 1695.2 886.1C1693.67 884.167 1691.2 882.667 1687.8 881.6C1684.4 880.533 1679.9 880 1674.3 880V873.7C1679.37 873.7 1683.43 873.167 1686.5 872.1C1689.57 871.033 1691.77 869.633 1693.1 867.9C1694.5 866.1 1695.2 864.067 1695.2 861.8C1695.2 858.667 1694 856.2 1691.6 854.4C1689.27 852.6 1686.13 851.7 1682.2 851.7C1679.2 851.7 1676.33 852.3 1673.6 853.5C1670.93 854.7 1668.57 856.267 1666.5 858.2L1662.1 853C1664.77 850.667 1667.8 848.767 1671.2 847.3C1674.67 845.767 1678.43 845 1682.5 845C1686.5 845 1690.07 845.633 1693.2 846.9C1696.4 848.167 1698.93 850 1700.8 852.4C1702.67 854.8 1703.6 857.733 1703.6 861.2C1703.6 865.067 1702.3 868.233 1699.7 870.7C1697.17 873.167 1693.93 875.067 1690 876.4V876.8C1692.8 877.4 1695.4 878.433 1697.8 879.9C1700.27 881.3 1702.2 883.1 1703.6 885.3C1705.07 887.5 1705.8 890.067 1705.8 893C1705.8 896.8 1704.73 900.067 1702.6 902.8C1700.53 905.467 1697.77 907.533 1694.3 909C1690.83 910.467 1686.97 911.2 1682.7 911.2Z" fill="black"/>
</svg>
