<svg width="1920" height="1080" viewBox="0 0 1920 1080" fill="none" xmlns="http://www.w3.org/2000/svg">
<rect width="1920" height="1080" fill="#949494"/>
<path d="M176.2 261V177.2H131V163.8H192.6V261H176.2ZM182.6 143.4C178.867 143.4 175.733 142.267 173.2 140C170.667 137.6 169.4 134.467 169.4 130.6C169.4 126.733 170.667 123.667 173.2 121.4C175.733 119 178.867 117.8 182.6 117.8C186.333 117.8 189.467 119 192 121.4C194.533 123.667 195.8 126.733 195.8 130.6C195.8 134.467 194.533 137.6 192 140C189.467 142.267 186.333 143.4 182.6 143.4ZM251.522 261V163.8H265.122L266.522 180.4H267.322C272.389 174.933 277.855 170.4 283.722 166.8C289.589 163.2 296.322 161.4 303.922 161.4C315.389 161.4 323.855 164.733 329.322 171.4C334.789 178.067 337.522 187.8 337.522 200.6V261H321.122V202.8C321.122 193.6 319.389 186.8 315.922 182.4C312.455 177.867 306.722 175.6 298.722 175.6C292.989 175.6 287.855 177.067 283.322 180C278.789 182.933 273.655 187.333 267.922 193.2V261H251.522ZM431.644 263.4C422.177 263.4 414.71 261.733 409.244 258.4C403.777 254.933 399.844 250.2 397.444 244.2C395.177 238.2 394.044 231.2 394.044 223.2V177.2H366.644V164.8L394.644 163.8L396.844 132.6H410.444V163.8H458.244V177.2H410.444V223.4C410.444 229.133 411.177 234 412.644 238C414.11 242 416.644 245 420.244 247C423.844 249 428.777 250 435.044 250C439.71 250 443.91 249.6 447.644 248.8C451.377 248 454.977 246.933 458.444 245.6L462.044 257.6C457.644 259.2 452.977 260.533 448.044 261.6C443.244 262.8 437.777 263.4 431.644 263.4ZM538.766 263.4C529.032 263.4 520.166 261.4 512.166 257.4C504.299 253.4 498.032 247.6 493.366 240C488.699 232.267 486.366 223 486.366 212.2C486.366 201.667 488.699 192.6 493.366 185C498.032 177.4 504.099 171.6 511.566 167.6C519.166 163.467 527.299 161.4 535.966 161.4C545.299 161.4 553.232 163.333 559.766 167.2C566.432 170.933 571.499 176.2 574.966 183C578.566 189.8 580.366 197.8 580.366 207C580.366 208.867 580.299 210.667 580.166 212.4C580.032 214.133 579.832 215.667 579.566 217H497.366V204.2H569.766L565.566 208.8C565.566 197.333 562.899 188.733 557.566 183C552.366 177.267 545.299 174.4 536.366 174.4C530.366 174.4 524.766 175.867 519.566 178.8C514.499 181.733 510.432 186 507.366 191.6C504.299 197.2 502.766 204.067 502.766 212.2C502.766 220.6 504.432 227.6 507.766 233.2C511.099 238.8 515.632 243.067 521.366 246C527.099 248.8 533.566 250.2 540.766 250.2C546.632 250.2 551.899 249.4 556.566 247.8C561.366 246.067 565.966 243.8 570.366 241L576.366 251.8C571.566 255 566.032 257.733 559.766 260C553.632 262.267 546.632 263.4 538.766 263.4ZM621.888 261V163.8H635.488L636.888 186.8H637.488C642.554 178.933 648.821 172.733 656.288 168.2C663.754 163.667 671.954 161.4 680.888 161.4C684.488 161.4 687.821 161.733 690.888 162.4C694.088 162.933 697.154 163.933 700.088 165.4L696.288 179.6C692.954 178.4 690.088 177.533 687.688 177C685.288 176.467 682.154 176.2 678.288 176.2C670.954 176.2 663.888 178.333 657.088 182.6C650.421 186.733 644.154 193.867 638.288 204V261H621.888ZM731.209 261V163.8H744.809L746.209 180.4H747.009C752.076 174.933 757.543 170.4 763.409 166.8C769.276 163.2 776.009 161.4 783.609 161.4C795.076 161.4 803.543 164.733 809.009 171.4C814.476 178.067 817.209 187.8 817.209 200.6V261H800.809V202.8C800.809 193.6 799.076 186.8 795.609 182.4C792.143 177.867 786.409 175.6 778.409 175.6C772.676 175.6 767.543 177.067 763.009 180C758.476 182.933 753.343 187.333 747.609 193.2V261H731.209ZM898.531 263.4C888.798 263.4 879.931 261.4 871.931 257.4C864.065 253.4 857.798 247.6 853.131 240C848.465 232.267 846.131 223 846.131 212.2C846.131 201.667 848.465 192.6 853.131 185C857.798 177.4 863.865 171.6 871.331 167.6C878.931 163.467 887.065 161.4 895.731 161.4C905.065 161.4 912.998 163.333 919.531 167.2C926.198 170.933 931.265 176.2 934.731 183C938.331 189.8 940.131 197.8 940.131 207C940.131 208.867 940.065 210.667 939.931 212.4C939.798 214.133 939.598 215.667 939.331 217H857.131V204.2H929.531L925.331 208.8C925.331 197.333 922.665 188.733 917.331 183C912.131 177.267 905.065 174.4 896.131 174.4C890.131 174.4 884.531 175.867 879.331 178.8C874.265 181.733 870.198 186 867.131 191.6C864.065 197.2 862.531 204.067 862.531 212.2C862.531 220.6 864.198 227.6 867.531 233.2C870.865 238.8 875.398 243.067 881.131 246C886.865 248.8 893.331 250.2 900.531 250.2C906.398 250.2 911.665 249.4 916.331 247.8C921.131 246.067 925.731 243.8 930.131 241L936.131 251.8C931.331 255 925.798 257.733 919.531 260C913.398 262.267 906.398 263.4 898.531 263.4ZM1031.25 263.4C1021.79 263.4 1014.32 261.733 1008.85 258.4C1003.39 254.933 999.453 250.2 997.053 244.2C994.786 238.2 993.653 231.2 993.653 223.2V177.2H966.253V164.8L994.253 163.8L996.453 132.6H1010.05V163.8H1057.85V177.2H1010.05V223.4C1010.05 229.133 1010.79 234 1012.25 238C1013.72 242 1016.25 245 1019.85 247C1023.45 249 1028.39 250 1034.65 250C1039.32 250 1043.52 249.6 1047.25 248.8C1050.99 248 1054.59 246.933 1058.05 245.6L1061.65 257.6C1057.25 259.2 1052.59 260.533 1047.65 261.6C1042.85 262.8 1037.39 263.4 1031.25 263.4ZM131.6 441V343.8H145.2L146.6 360.4H147.4C152.467 354.933 157.933 350.4 163.8 346.8C169.667 343.2 176.4 341.4 184 341.4C195.467 341.4 203.933 344.733 209.4 351.4C214.867 358.067 217.6 367.8 217.6 380.6V441H201.2V382.8C201.2 373.6 199.467 366.8 196 362.4C192.533 357.867 186.8 355.6 178.8 355.6C173.067 355.6 167.933 357.067 163.4 360C158.867 362.933 153.733 367.333 148 373.2V441H131.6ZM292.922 443.4C284.389 443.4 276.455 441.4 269.122 437.4C261.922 433.4 256.055 427.6 251.522 420C247.122 412.4 244.922 403.267 244.922 392.6C244.922 381.667 247.122 372.4 251.522 364.8C256.055 357.2 261.922 351.4 269.122 347.4C276.455 343.4 284.389 341.4 292.922 341.4C301.455 341.4 309.322 343.4 316.522 347.4C323.855 351.4 329.722 357.2 334.122 364.8C338.655 372.4 340.922 381.667 340.922 392.6C340.922 403.267 338.655 412.4 334.122 420C329.722 427.6 323.855 433.4 316.522 437.4C309.322 441.4 301.455 443.4 292.922 443.4ZM292.922 429.8C299.189 429.8 304.655 428.267 309.322 425.2C313.989 422 317.589 417.6 320.122 412C322.655 406.4 323.922 399.933 323.922 392.6C323.922 385.133 322.655 378.6 320.122 373C317.589 367.267 313.989 362.867 309.322 359.8C304.655 356.6 299.189 355 292.922 355C286.655 355 281.189 356.6 276.522 359.8C271.989 362.867 268.389 367.267 265.722 373C263.189 378.6 261.922 385.133 261.922 392.6C261.922 399.933 263.189 406.4 265.722 412C268.389 417.6 271.989 422 276.522 425.2C281.189 428.267 286.655 429.8 292.922 429.8ZM414.844 443.4C405.377 443.4 396.51 441.867 388.244 438.8C379.977 435.733 372.91 432.2 367.044 428.2L374.644 417.4C380.244 421.4 386.444 424.6 393.244 427C400.044 429.4 407.91 430.6 416.844 430.6C425.11 430.6 431.244 429.067 435.244 426C439.377 422.933 441.444 419.4 441.444 415.4C441.444 413.533 441.044 411.8 440.244 410.2C439.577 408.6 438.177 407.067 436.044 405.6C434.044 404.133 431.044 402.733 427.044 401.4C423.044 400.067 417.71 398.733 411.044 397.4C398.377 394.733 388.844 391.133 382.444 386.6C376.177 382.067 373.044 376.2 373.044 369C373.044 361.133 376.444 354.6 383.244 349.4C390.044 344.067 400.11 341.4 413.444 341.4C420.91 341.4 428.11 342.667 435.044 345.2C441.977 347.6 447.844 350.467 452.644 353.8L444.644 364.4C440.244 361.2 435.244 358.733 429.644 357C424.044 355.133 418.177 354.2 412.044 354.2C406.444 354.2 401.977 354.867 398.644 356.2C395.444 357.4 393.11 359.067 391.644 361.2C390.31 363.333 389.644 365.667 389.644 368.2C389.644 372.333 391.844 375.6 396.244 378C400.777 380.267 407.977 382.4 417.844 384.4C428.644 386.667 436.91 389.2 442.644 392C448.51 394.8 452.51 398 454.644 401.6C456.91 405.2 458.044 409.467 458.044 414.4C458.044 419.733 456.377 424.6 453.044 429C449.71 433.267 444.844 436.733 438.444 439.4C432.044 442.067 424.177 443.4 414.844 443.4ZM551.566 443.4C542.099 443.4 534.632 441.733 529.166 438.4C523.699 434.933 519.766 430.2 517.366 424.2C515.099 418.2 513.966 411.2 513.966 403.2V357.2H486.566V344.8L514.566 343.8L516.766 312.6H530.366V343.8H578.166V357.2H530.366V403.4C530.366 409.133 531.099 414 532.566 418C534.032 422 536.566 425 540.166 427C543.766 429 548.699 430 554.966 430C559.632 430 563.832 429.6 567.566 428.8C571.299 428 574.899 426.933 578.366 425.6L581.966 437.6C577.566 439.2 572.899 440.533 567.966 441.6C563.166 442.8 557.699 443.4 551.566 443.4ZM641.888 443.4C635.888 443.4 630.354 442.333 625.288 440.2C620.221 437.933 616.221 434.733 613.288 430.6C610.354 426.467 608.888 421.533 608.888 415.8C608.888 404.867 614.354 396.6 625.288 391C636.221 385.267 654.221 381.4 679.288 379.4C679.154 375 678.221 370.933 676.488 367.2C674.888 363.467 672.221 360.533 668.488 358.4C664.754 356.133 659.754 355 653.488 355C649.354 355 645.221 355.6 641.088 356.8C637.088 357.867 633.221 359.333 629.488 361.2C625.888 362.933 622.554 364.733 619.488 366.6L613.088 355.4C616.288 353.267 620.154 351.133 624.688 349C629.354 346.733 634.354 344.933 639.688 343.6C645.021 342.133 650.554 341.4 656.288 341.4C665.221 341.4 672.554 343.067 678.288 346.4C684.154 349.733 688.488 354.4 691.288 360.4C694.221 366.267 695.688 373.267 695.688 381.4V441H682.288L680.888 427.8H680.288C674.954 432.067 668.954 435.733 662.288 438.8C655.621 441.867 648.821 443.4 641.888 443.4ZM646.288 430.2C651.888 430.2 657.421 428.933 662.888 426.4C668.354 423.867 673.821 420.333 679.288 415.8V390.2C665.421 391.4 654.488 393.067 646.488 395.2C638.621 397.333 633.021 400.067 629.688 403.4C626.488 406.6 624.888 410.333 624.888 414.6C624.888 418.2 625.888 421.2 627.888 423.6C629.888 425.867 632.488 427.533 635.688 428.6C639.021 429.667 642.554 430.2 646.288 430.2ZM793.809 443.4C783.543 443.4 775.676 440.467 770.209 434.6C764.743 428.6 762.009 419.867 762.009 408.4V312H728.809V298.6H778.409V409.6C778.409 416.667 780.143 421.8 783.609 425C787.076 428.2 791.676 429.8 797.409 429.8C800.209 429.8 803.076 429.467 806.009 428.8C808.943 428 812.209 426.8 815.809 425.2L820.009 437.6C815.609 439.2 811.476 440.533 807.609 441.6C803.743 442.8 799.143 443.4 793.809 443.4ZM891.731 485.8C882.265 485.8 874.198 484.733 867.531 482.6C860.865 480.467 855.731 477.4 852.131 473.4C848.665 469.4 846.931 464.533 846.931 458.8C846.931 454.933 848.265 451.067 850.931 447.2C853.731 443.467 857.731 440.133 862.931 437.2V436.4C860.398 434.933 858.065 432.933 855.931 430.4C853.931 427.867 852.931 424.533 852.931 420.4C852.931 417.333 853.931 414.2 855.931 411C857.931 407.667 860.798 404.733 864.531 402.2V401.4C861.198 398.867 858.331 395.467 855.931 391.2C853.665 386.933 852.531 381.933 852.531 376.2C852.531 369.133 854.265 363 857.731 357.8C861.331 352.6 865.998 348.6 871.731 345.8C877.598 342.867 883.931 341.4 890.731 341.4C896.198 341.4 900.998 342.2 905.131 343.8H945.331V357.2H920.131C922.398 359.467 924.331 362.333 925.931 365.8C927.531 369.267 928.331 372.933 928.331 376.8C928.331 383.733 926.665 389.733 923.331 394.8C919.998 399.733 915.465 403.533 909.731 406.2C904.131 408.867 897.798 410.2 890.731 410.2C888.198 410.2 885.465 409.933 882.531 409.4C879.731 408.733 876.998 407.8 874.331 406.6C871.931 408.067 870.065 409.733 868.731 411.6C867.398 413.467 866.731 415.533 866.731 417.8C866.731 421.533 868.465 424.333 871.931 426.2C875.531 428.067 880.531 429 886.931 429H908.731C921.265 429 930.531 430.733 936.531 434.2C942.665 437.667 945.731 443.533 945.731 451.8C945.731 457.8 943.531 463.4 939.131 468.6C934.731 473.8 928.465 477.933 920.331 481C912.331 484.2 902.798 485.8 891.731 485.8ZM890.731 399.2C894.865 399.2 898.598 398.267 901.931 396.4C905.398 394.533 908.131 391.867 910.131 388.4C912.131 384.933 913.131 380.867 913.131 376.2C913.131 371.667 912.131 367.733 910.131 364.4C908.131 360.933 905.398 358.267 901.931 356.4C898.598 354.4 894.865 353.4 890.731 353.4C886.731 353.4 882.998 354.4 879.531 356.4C876.198 358.267 873.465 360.933 871.331 364.4C869.331 367.733 868.331 371.667 868.331 376.2C868.331 380.867 869.331 384.933 871.331 388.4C873.465 391.867 876.198 394.533 879.531 396.4C882.998 398.267 886.731 399.2 890.731 399.2ZM892.931 473.8C900.531 473.8 907.065 472.867 912.531 471C917.998 469.133 922.198 466.733 925.131 463.8C928.065 460.867 929.531 457.733 929.531 454.4C929.531 449.733 927.665 446.6 923.931 445C920.331 443.4 914.798 442.6 907.331 442.6H888.331C885.531 442.6 882.865 442.467 880.331 442.2C877.931 441.933 875.665 441.533 873.531 441C868.998 443.533 865.798 446.133 863.931 448.8C862.065 451.6 861.131 454.4 861.131 457.2C861.131 462.267 863.798 466.267 869.131 469.2C874.598 472.267 882.531 473.8 892.931 473.8ZM1015.65 441V357.2H970.453V343.8H1032.05V441H1015.65ZM1022.05 323.4C1018.32 323.4 1015.19 322.267 1012.65 320C1010.12 317.6 1008.85 314.467 1008.85 310.6C1008.85 306.733 1010.12 303.667 1012.65 301.4C1015.19 299 1018.32 297.8 1022.05 297.8C1025.79 297.8 1028.92 299 1031.45 301.4C1033.99 303.667 1035.25 306.733 1035.25 310.6C1035.25 314.467 1033.99 317.6 1031.45 320C1028.92 322.267 1025.79 323.4 1022.05 323.4ZM1121.58 443.4C1115.58 443.4 1110.04 442.333 1104.98 440.2C1099.91 437.933 1095.91 434.733 1092.98 430.6C1090.04 426.467 1088.58 421.533 1088.58 415.8C1088.58 404.867 1094.04 396.6 1104.98 391C1115.91 385.267 1133.91 381.4 1158.98 379.4C1158.84 375 1157.91 370.933 1156.18 367.2C1154.58 363.467 1151.91 360.533 1148.18 358.4C1144.44 356.133 1139.44 355 1133.18 355C1129.04 355 1124.91 355.6 1120.78 356.8C1116.78 357.867 1112.91 359.333 1109.18 361.2C1105.58 362.933 1102.24 364.733 1099.18 366.6L1092.78 355.4C1095.98 353.267 1099.84 351.133 1104.38 349C1109.04 346.733 1114.04 344.933 1119.38 343.6C1124.71 342.133 1130.24 341.4 1135.98 341.4C1144.91 341.4 1152.24 343.067 1157.98 346.4C1163.84 349.733 1168.18 354.4 1170.98 360.4C1173.91 366.267 1175.38 373.267 1175.38 381.4V441H1161.98L1160.58 427.8H1159.98C1154.64 432.067 1148.64 435.733 1141.98 438.8C1135.31 441.867 1128.51 443.4 1121.58 443.4ZM1125.98 430.2C1131.58 430.2 1137.11 428.933 1142.58 426.4C1148.04 423.867 1153.51 420.333 1158.98 415.8V390.2C1145.11 391.4 1134.18 393.067 1126.18 395.2C1118.31 397.333 1112.71 400.067 1109.38 403.4C1106.18 406.6 1104.58 410.333 1104.58 414.6C1104.58 418.2 1105.58 421.2 1107.58 423.6C1109.58 425.867 1112.18 427.533 1115.38 428.6C1118.71 429.667 1122.24 430.2 1125.98 430.2Z" fill="white"/>
<circle cx="1682" cy="879" r="92" fill="white"/>
<path d="M1677.6 913C1677.87 906.933 1678.43 901.4 1679.3 896.4C1680.17 891.4 1681.43 886.7 1683.1 882.3C1684.77 877.833 1686.9 873.5 1689.5 869.3C1692.1 865.1 1695.2 860.767 1698.8 856.3H1662V849.2H1708.2V854.3C1703.93 859.1 1700.43 863.7 1697.7 868.1C1694.97 872.5 1692.8 876.967 1691.2 881.5C1689.6 886.033 1688.4 890.867 1687.6 896C1686.87 901.067 1686.4 906.733 1686.2 913H1677.6Z" fill="black"/>
</svg>
