<svg width="1920" height="1080" viewBox="0 0 1920 1080" fill="none" xmlns="http://www.w3.org/2000/svg">
<rect width="1920" height="1080" fill="white"/>
<circle cx="1682" cy="879" r="92" fill="#949494"/>
<path d="M1661.3 910V905.1C1668.5 898.767 1674.57 893.2 1679.5 888.4C1684.5 883.533 1688.3 879.167 1690.9 875.3C1693.5 871.433 1694.8 867.733 1694.8 864.2C1694.8 860.533 1693.67 857.533 1691.4 855.2C1689.13 852.867 1685.63 851.7 1680.9 851.7C1677.9 851.7 1675.1 852.433 1672.5 853.9C1669.97 855.367 1667.67 857.2 1665.6 859.4L1660.9 854.7C1663.77 851.767 1666.83 849.433 1670.1 847.7C1673.43 845.9 1677.37 845 1681.9 845C1686.17 845 1689.83 845.8 1692.9 847.4C1696.03 848.933 1698.43 851.1 1700.1 853.9C1701.83 856.7 1702.7 860 1702.7 863.8C1702.7 867.8 1701.47 871.833 1699 875.9C1696.53 879.967 1693.07 884.267 1688.6 888.8C1684.2 893.267 1679.1 898.167 1673.3 903.5C1675.3 903.3 1677.3 903.167 1679.3 903.1C1681.3 902.967 1683.27 902.9 1685.2 902.9H1706.2V910H1661.3Z" fill="white"/>
<path d="M104.6 251V153.8H117.8L119.2 166.6H119.6C122.133 162.067 125.067 158.4 128.4 155.6C131.733 152.8 136.2 151.4 141.8 151.4C146.6 151.4 150.533 152.8 153.6 155.6C156.667 158.4 158.867 162.6 160.2 168.2C163 163 166.067 158.933 169.4 156C172.867 152.933 177.4 151.4 183 151.4C189.8 151.4 195.067 154 198.8 159.2C202.667 164.267 204.6 171.667 204.6 181.4V251H188.2V182.6C188.2 171.267 184.733 165.6 177.8 165.6C174.467 165.6 171.667 166.867 169.4 169.4C167.267 171.8 164.867 175.533 162.2 180.6V251H147V182.6C147 177 146.2 172.8 144.6 170C143.133 167.067 140.6 165.6 137 165.6C133.667 165.6 130.733 166.867 128.2 169.4C125.8 171.8 123.4 175.533 121 180.6V251H104.6ZM262.122 253.4C256.122 253.4 250.589 252.333 245.522 250.2C240.455 247.933 236.455 244.733 233.522 240.6C230.589 236.467 229.122 231.533 229.122 225.8C229.122 214.867 234.589 206.6 245.522 201C256.455 195.267 274.455 191.4 299.522 189.4C299.389 185 298.455 180.933 296.722 177.2C295.122 173.467 292.455 170.533 288.722 168.4C284.989 166.133 279.989 165 273.722 165C269.589 165 265.455 165.6 261.322 166.8C257.322 167.867 253.455 169.333 249.722 171.2C246.122 172.933 242.789 174.733 239.722 176.6L233.322 165.4C236.522 163.267 240.389 161.133 244.922 159C249.589 156.733 254.589 154.933 259.922 153.6C265.255 152.133 270.789 151.4 276.522 151.4C285.455 151.4 292.789 153.067 298.522 156.4C304.389 159.733 308.722 164.4 311.522 170.4C314.455 176.267 315.922 183.267 315.922 191.4V251H302.522L301.122 237.8H300.522C295.189 242.067 289.189 245.733 282.522 248.8C275.855 251.867 269.055 253.4 262.122 253.4ZM266.522 240.2C272.122 240.2 277.655 238.933 283.122 236.4C288.589 233.867 294.055 230.333 299.522 225.8V200.2C285.655 201.4 274.722 203.067 266.722 205.2C258.855 207.333 253.255 210.067 249.922 213.4C246.722 216.6 245.122 220.333 245.122 224.6C245.122 228.2 246.122 231.2 248.122 233.6C250.122 235.867 252.722 237.533 255.922 238.6C259.255 239.667 262.789 240.2 266.522 240.2ZM345.644 251L382.644 200.6L348.444 153.8H366.644L382.044 175.2C383.777 177.733 385.644 180.4 387.644 183.2C389.644 186 391.577 188.8 393.444 191.6H394.244C395.977 188.8 397.777 186 399.644 183.2C401.644 180.267 403.51 177.467 405.244 174.8L419.844 153.8H437.244L402.644 202L439.844 251H421.844L404.844 228.6C402.844 225.8 400.71 222.867 398.444 219.8C396.31 216.733 394.177 213.8 392.044 211H391.244C389.244 213.8 387.244 216.667 385.244 219.6C383.244 222.533 381.244 225.533 379.244 228.6L363.244 251H345.644ZM515.966 251V167.2H470.766V153.8H532.366V251H515.966ZM522.366 133.4C518.632 133.4 515.499 132.267 512.966 130C510.432 127.6 509.166 124.467 509.166 120.6C509.166 116.733 510.432 113.667 512.966 111.4C515.499 109 518.632 107.8 522.366 107.8C526.099 107.8 529.232 109 531.766 111.4C534.299 113.667 535.566 116.733 535.566 120.6C535.566 124.467 534.299 127.6 531.766 130C529.232 132.267 526.099 133.4 522.366 133.4ZM584.288 251V153.8H597.488L598.888 166.6H599.288C601.821 162.067 604.754 158.4 608.088 155.6C611.421 152.8 615.888 151.4 621.488 151.4C626.288 151.4 630.221 152.8 633.288 155.6C636.354 158.4 638.554 162.6 639.888 168.2C642.688 163 645.754 158.933 649.088 156C652.554 152.933 657.088 151.4 662.688 151.4C669.488 151.4 674.754 154 678.488 159.2C682.354 164.267 684.288 171.667 684.288 181.4V251H667.888V182.6C667.888 171.267 664.421 165.6 657.488 165.6C654.154 165.6 651.354 166.867 649.088 169.4C646.954 171.8 644.554 175.533 641.888 180.6V251H626.688V182.6C626.688 177 625.888 172.8 624.288 170C622.821 167.067 620.288 165.6 616.688 165.6C613.354 165.6 610.421 166.867 607.888 169.4C605.488 171.8 603.088 175.533 600.688 180.6V251H584.288ZM741.809 253.4C735.809 253.4 730.276 252.333 725.209 250.2C720.143 247.933 716.143 244.733 713.209 240.6C710.276 236.467 708.809 231.533 708.809 225.8C708.809 214.867 714.276 206.6 725.209 201C736.143 195.267 754.143 191.4 779.209 189.4C779.076 185 778.143 180.933 776.409 177.2C774.809 173.467 772.143 170.533 768.409 168.4C764.676 166.133 759.676 165 753.409 165C749.276 165 745.143 165.6 741.009 166.8C737.009 167.867 733.143 169.333 729.409 171.2C725.809 172.933 722.476 174.733 719.409 176.6L713.009 165.4C716.209 163.267 720.076 161.133 724.609 159C729.276 156.733 734.276 154.933 739.609 153.6C744.943 152.133 750.476 151.4 756.209 151.4C765.143 151.4 772.476 153.067 778.209 156.4C784.076 159.733 788.409 164.4 791.209 170.4C794.143 176.267 795.609 183.267 795.609 191.4V251H782.209L780.809 237.8H780.209C774.876 242.067 768.876 245.733 762.209 248.8C755.543 251.867 748.743 253.4 741.809 253.4ZM746.209 240.2C751.809 240.2 757.343 238.933 762.809 236.4C768.276 233.867 773.743 230.333 779.209 225.8V200.2C765.343 201.4 754.409 203.067 746.409 205.2C738.543 207.333 732.943 210.067 729.609 213.4C726.409 216.6 724.809 220.333 724.809 224.6C724.809 228.2 725.809 231.2 727.809 233.6C729.809 235.867 732.409 237.533 735.609 238.6C738.943 239.667 742.476 240.2 746.209 240.2ZM893.731 253.4C883.465 253.4 875.598 250.467 870.131 244.6C864.665 238.6 861.931 229.867 861.931 218.4V122H828.731V108.6H878.331V219.6C878.331 226.667 880.065 231.8 883.531 235C886.998 238.2 891.598 239.8 897.331 239.8C900.131 239.8 902.998 239.467 905.931 238.8C908.865 238 912.131 236.8 915.731 235.2L919.931 247.6C915.531 249.2 911.398 250.533 907.531 251.6C903.665 252.8 899.065 253.4 893.731 253.4ZM995.653 251V167.2H950.453V153.8H1012.05V251H995.653ZM1002.05 133.4C998.32 133.4 995.186 132.267 992.653 130C990.12 127.6 988.853 124.467 988.853 120.6C988.853 116.733 990.12 113.667 992.653 111.4C995.186 109 998.32 107.8 1002.05 107.8C1005.79 107.8 1008.92 109 1011.45 111.4C1013.99 113.667 1015.25 116.733 1015.25 120.6C1015.25 124.467 1013.99 127.6 1011.45 130C1008.92 132.267 1005.79 133.4 1002.05 133.4ZM1114.38 253.4C1104.91 253.4 1096.04 251.867 1087.78 248.8C1079.51 245.733 1072.44 242.2 1066.58 238.2L1074.18 227.4C1079.78 231.4 1085.98 234.6 1092.78 237C1099.58 239.4 1107.44 240.6 1116.38 240.6C1124.64 240.6 1130.78 239.067 1134.78 236C1138.91 232.933 1140.98 229.4 1140.98 225.4C1140.98 223.533 1140.58 221.8 1139.78 220.2C1139.11 218.6 1137.71 217.067 1135.58 215.6C1133.58 214.133 1130.58 212.733 1126.58 211.4C1122.58 210.067 1117.24 208.733 1110.58 207.4C1097.91 204.733 1088.38 201.133 1081.98 196.6C1075.71 192.067 1072.58 186.2 1072.58 179C1072.58 171.133 1075.98 164.6 1082.78 159.4C1089.58 154.067 1099.64 151.4 1112.98 151.4C1120.44 151.4 1127.64 152.667 1134.58 155.2C1141.51 157.6 1147.38 160.467 1152.18 163.8L1144.18 174.4C1139.78 171.2 1134.78 168.733 1129.18 167C1123.58 165.133 1117.71 164.2 1111.58 164.2C1105.98 164.2 1101.51 164.867 1098.18 166.2C1094.98 167.4 1092.64 169.067 1091.18 171.2C1089.84 173.333 1089.18 175.667 1089.18 178.2C1089.18 182.333 1091.38 185.6 1095.78 188C1100.31 190.267 1107.51 192.4 1117.38 194.4C1128.18 196.667 1136.44 199.2 1142.18 202C1148.04 204.8 1152.04 208 1154.18 211.6C1156.44 215.2 1157.58 219.467 1157.58 224.4C1157.58 229.733 1155.91 234.6 1152.58 239C1149.24 243.267 1144.38 246.733 1137.98 249.4C1131.58 252.067 1123.71 253.4 1114.38 253.4ZM1183.9 251V153.8H1197.1L1198.5 166.6H1198.9C1201.43 162.067 1204.36 158.4 1207.7 155.6C1211.03 152.8 1215.5 151.4 1221.1 151.4C1225.9 151.4 1229.83 152.8 1232.9 155.6C1235.96 158.4 1238.16 162.6 1239.5 168.2C1242.3 163 1245.36 158.933 1248.7 156C1252.16 152.933 1256.7 151.4 1262.3 151.4C1269.1 151.4 1274.36 154 1278.1 159.2C1281.96 164.267 1283.9 171.667 1283.9 181.4V251H1267.5V182.6C1267.5 171.267 1264.03 165.6 1257.1 165.6C1253.76 165.6 1250.96 166.867 1248.7 169.4C1246.56 171.8 1244.16 175.533 1241.5 180.6V251H1226.3V182.6C1226.3 177 1225.5 172.8 1223.9 170C1222.43 167.067 1219.9 165.6 1216.3 165.6C1212.96 165.6 1210.03 166.867 1207.5 169.4C1205.1 171.8 1202.7 175.533 1200.3 180.6V251H1183.9ZM1328.22 228.8L1319.82 222.8L1341.42 189.8L1309.02 175.8L1312.22 166.6L1345.62 177.6L1347.42 139.8H1357.02L1358.82 177.6L1392.22 166.6L1395.42 175.8L1363.02 189.8L1384.62 222.8L1376.22 228.8L1352.22 197L1328.22 228.8Z" fill="#949494"/>
</svg>
