<svg width="81" height="81" viewBox="0 0 81 81" fill="none" xmlns="http://www.w3.org/2000/svg">
<path d="M40 40.5C40 40.2239 40.2239 40 40.5 40C40.7761 40 41 40.2239 41 40.5C41 40.7761 40.7761 41 40.5 41C40.2239 41 40 40.7761 40 40.5Z" fill="white"/>
<path d="M40.5 41V40C40.7761 40 41 40.2239 41 40.5H40H39C39 41.3284 39.6716 42 40.5 42V41ZM41 40.5H40C40 40.2239 40.2239 40 40.5 40V41V42C41.3284 42 42 41.3284 42 40.5H41ZM40.5 40V41C40.2239 41 40 40.7761 40 40.5H41H42C42 39.6716 41.3284 39 40.5 39V40ZM40.5 40V39C39.6716 39 39 39.6716 39 40.5H40H41C41 40.7761 40.7761 41 40.5 41V40Z" fill="black" fill-opacity="0.1"/>
</svg>
