<svg width="1920" height="1080" viewBox="0 0 1920 1080" fill="none" xmlns="http://www.w3.org/2000/svg">
<rect width="1920" height="1080" fill="#949494"/>
<path d="M191.8 263.4C182.333 263.4 174.867 261.733 169.4 258.4C163.933 254.933 160 250.2 157.6 244.2C155.333 238.2 154.2 231.2 154.2 223.2V177.2H126.8V164.8L154.8 163.8L157 132.6H170.6V163.8H218.4V177.2H170.6V223.4C170.6 229.133 171.333 234 172.8 238C174.267 242 176.8 245 180.4 247C184 249 188.933 250 195.2 250C199.867 250 204.067 249.6 207.8 248.8C211.533 248 215.133 246.933 218.6 245.6L222.2 257.6C217.8 259.2 213.133 260.533 208.2 261.6C203.4 262.8 197.933 263.4 191.8 263.4ZM298.922 263.4C289.189 263.4 280.322 261.4 272.322 257.4C264.455 253.4 258.189 247.6 253.522 240C248.855 232.267 246.522 223 246.522 212.2C246.522 201.667 248.855 192.6 253.522 185C258.189 177.4 264.255 171.6 271.722 167.6C279.322 163.467 287.455 161.4 296.122 161.4C305.455 161.4 313.389 163.333 319.922 167.2C326.589 170.933 331.655 176.2 335.122 183C338.722 189.8 340.522 197.8 340.522 207C340.522 208.867 340.455 210.667 340.322 212.4C340.189 214.133 339.989 215.667 339.722 217H257.522V204.2H329.922L325.722 208.8C325.722 197.333 323.055 188.733 317.722 183C312.522 177.267 305.455 174.4 296.522 174.4C290.522 174.4 284.922 175.867 279.722 178.8C274.655 181.733 270.589 186 267.522 191.6C264.455 197.2 262.922 204.067 262.922 212.2C262.922 220.6 264.589 227.6 267.922 233.2C271.255 238.8 275.789 243.067 281.522 246C287.255 248.8 293.722 250.2 300.922 250.2C306.789 250.2 312.055 249.4 316.722 247.8C321.522 246.067 326.122 243.8 330.522 241L336.522 251.8C331.722 255 326.189 257.733 319.922 260C313.789 262.267 306.789 263.4 298.922 263.4ZM422.044 263.4C411.91 263.4 402.777 261.4 394.644 257.4C386.644 253.4 380.31 247.6 375.644 240C371.11 232.4 368.844 223.267 368.844 212.6C368.844 201.667 371.31 192.4 376.244 184.8C381.177 177.2 387.71 171.4 395.844 167.4C404.11 163.4 413.177 161.4 423.044 161.4C431.044 161.4 437.91 162.8 443.644 165.6C449.51 168.4 454.444 171.733 458.444 175.6L450.244 186.2C446.244 182.733 442.11 180 437.844 178C433.577 176 428.844 175 423.644 175C416.177 175 409.577 176.6 403.844 179.8C398.11 182.867 393.644 187.267 390.444 193C387.377 198.6 385.844 205.133 385.844 212.6C385.844 219.933 387.377 226.4 390.444 232C393.51 237.6 397.844 242 403.444 245.2C409.177 248.267 415.777 249.8 423.244 249.8C429.244 249.8 434.71 248.6 439.644 246.2C444.71 243.8 449.244 240.933 453.244 237.6L460.644 248.2C455.31 253 449.31 256.733 442.644 259.4C436.11 262.067 429.244 263.4 422.044 263.4ZM491.366 261V118.6H507.766V157.4L506.766 180.4H507.366C512.299 175.067 517.699 170.6 523.566 167C529.432 163.267 536.166 161.4 543.766 161.4C555.232 161.4 563.699 164.733 569.166 171.4C574.632 178.067 577.366 187.8 577.366 200.6V261H560.966V202.8C560.966 193.6 559.232 186.8 555.766 182.4C552.299 177.867 546.566 175.6 538.566 175.6C532.832 175.6 527.699 177.067 523.166 180C518.632 182.933 513.499 187.333 507.766 193.2V261H491.366ZM177 443.4C172.2 443.4 167.067 442.267 161.6 440C156.267 437.6 151.333 434.333 146.8 430.2H146.2L144.8 441H131.6V298.6H148V337.4L147.4 356.2H148C152.4 351.667 157.467 348.067 163.2 345.4C169.067 342.733 174.867 341.4 180.6 341.4C189.4 341.4 196.8 343.467 202.8 347.6C208.8 351.6 213.333 357.333 216.4 364.8C219.467 372.133 221 380.8 221 390.8C221 401.867 218.933 411.333 214.8 419.2C210.8 427.067 205.467 433.067 198.8 437.2C192.133 441.333 184.867 443.4 177 443.4ZM174.4 429.6C180 429.6 185 428.067 189.4 425C193.933 421.933 197.467 417.533 200 411.8C202.667 405.933 204 399 204 391C204 383.933 203.067 377.733 201.2 372.4C199.333 366.933 196.4 362.733 192.4 359.8C188.4 356.733 183.133 355.2 176.6 355.2C172.2 355.2 167.533 356.4 162.6 358.8C157.8 361.067 152.933 364.733 148 369.8V418.2C152.667 422.333 157.333 425.267 162 427C166.8 428.733 170.933 429.6 174.4 429.6ZM262.122 441V343.8H275.722L277.122 366.8H277.722C282.789 358.933 289.055 352.733 296.522 348.2C303.989 343.667 312.189 341.4 321.122 341.4C324.722 341.4 328.055 341.733 331.122 342.4C334.322 342.933 337.389 343.933 340.322 345.4L336.522 359.6C333.189 358.4 330.322 357.533 327.922 357C325.522 356.467 322.389 356.2 318.522 356.2C311.189 356.2 304.122 358.333 297.322 362.6C290.655 366.733 284.389 373.867 278.522 384V441H262.122ZM412.844 443.4C404.31 443.4 396.377 441.4 389.044 437.4C381.844 433.4 375.977 427.6 371.444 420C367.044 412.4 364.844 403.267 364.844 392.6C364.844 381.667 367.044 372.4 371.444 364.8C375.977 357.2 381.844 351.4 389.044 347.4C396.377 343.4 404.31 341.4 412.844 341.4C421.377 341.4 429.244 343.4 436.444 347.4C443.777 351.4 449.644 357.2 454.044 364.8C458.577 372.4 460.844 381.667 460.844 392.6C460.844 403.267 458.577 412.4 454.044 420C449.644 427.6 443.777 433.4 436.444 437.4C429.244 441.4 421.377 443.4 412.844 443.4ZM412.844 429.8C419.11 429.8 424.577 428.267 429.244 425.2C433.91 422 437.51 417.6 440.044 412C442.577 406.4 443.844 399.933 443.844 392.6C443.844 385.133 442.577 378.6 440.044 373C437.51 367.267 433.91 362.867 429.244 359.8C424.577 356.6 419.11 355 412.844 355C406.577 355 401.11 356.6 396.444 359.8C391.91 362.867 388.31 367.267 385.644 373C383.11 378.6 381.844 385.133 381.844 392.6C381.844 399.933 383.11 406.4 385.644 412C388.31 417.6 391.91 422 396.444 425.2C401.11 428.267 406.577 429.8 412.844 429.8ZM172.2 665.8C162.733 665.8 154.667 664.733 148 662.6C141.333 660.467 136.2 657.4 132.6 653.4C129.133 649.4 127.4 644.533 127.4 638.8C127.4 634.933 128.733 631.067 131.4 627.2C134.2 623.467 138.2 620.133 143.4 617.2V616.4C140.867 614.933 138.533 612.933 136.4 610.4C134.4 607.867 133.4 604.533 133.4 600.4C133.4 597.333 134.4 594.2 136.4 591C138.4 587.667 141.267 584.733 145 582.2V581.4C141.667 578.867 138.8 575.467 136.4 571.2C134.133 566.933 133 561.933 133 556.2C133 549.133 134.733 543 138.2 537.8C141.8 532.6 146.467 528.6 152.2 525.8C158.067 522.867 164.4 521.4 171.2 521.4C176.667 521.4 181.467 522.2 185.6 523.8H225.8V537.2H200.6C202.867 539.467 204.8 542.333 206.4 545.8C208 549.267 208.8 552.933 208.8 556.8C208.8 563.733 207.133 569.733 203.8 574.8C200.467 579.733 195.933 583.533 190.2 586.2C184.6 588.867 178.267 590.2 171.2 590.2C168.667 590.2 165.933 589.933 163 589.4C160.2 588.733 157.467 587.8 154.8 586.6C152.4 588.067 150.533 589.733 149.2 591.6C147.867 593.467 147.2 595.533 147.2 597.8C147.2 601.533 148.933 604.333 152.4 606.2C156 608.067 161 609 167.4 609H189.2C201.733 609 211 610.733 217 614.2C223.133 617.667 226.2 623.533 226.2 631.8C226.2 637.8 224 643.4 219.6 648.6C215.2 653.8 208.933 657.933 200.8 661C192.8 664.2 183.267 665.8 172.2 665.8ZM171.2 579.2C175.333 579.2 179.067 578.267 182.4 576.4C185.867 574.533 188.6 571.867 190.6 568.4C192.6 564.933 193.6 560.867 193.6 556.2C193.6 551.667 192.6 547.733 190.6 544.4C188.6 540.933 185.867 538.267 182.4 536.4C179.067 534.4 175.333 533.4 171.2 533.4C167.2 533.4 163.467 534.4 160 536.4C156.667 538.267 153.933 540.933 151.8 544.4C149.8 547.733 148.8 551.667 148.8 556.2C148.8 560.867 149.8 564.933 151.8 568.4C153.933 571.867 156.667 574.533 160 576.4C163.467 578.267 167.2 579.2 171.2 579.2ZM173.4 653.8C181 653.8 187.533 652.867 193 651C198.467 649.133 202.667 646.733 205.6 643.8C208.533 640.867 210 637.733 210 634.4C210 629.733 208.133 626.6 204.4 625C200.8 623.4 195.267 622.6 187.8 622.6H168.8C166 622.6 163.333 622.467 160.8 622.2C158.4 621.933 156.133 621.533 154 621C149.467 623.533 146.267 626.133 144.4 628.8C142.533 631.6 141.6 634.4 141.6 637.2C141.6 642.267 144.267 646.267 149.6 649.2C155.067 652.267 163 653.8 173.4 653.8ZM262.122 621V523.8H275.722L277.122 546.8H277.722C282.789 538.933 289.055 532.733 296.522 528.2C303.989 523.667 312.189 521.4 321.122 521.4C324.722 521.4 328.055 521.733 331.122 522.4C334.322 522.933 337.389 523.933 340.322 525.4L336.522 539.6C333.189 538.4 330.322 537.533 327.922 537C325.522 536.467 322.389 536.2 318.522 536.2C311.189 536.2 304.122 538.333 297.322 542.6C290.655 546.733 284.389 553.867 278.522 564V621H262.122ZM402.044 623.4C396.044 623.4 390.51 622.333 385.444 620.2C380.377 617.933 376.377 614.733 373.444 610.6C370.51 606.467 369.044 601.533 369.044 595.8C369.044 584.867 374.51 576.6 385.444 571C396.377 565.267 414.377 561.4 439.444 559.4C439.31 555 438.377 550.933 436.644 547.2C435.044 543.467 432.377 540.533 428.644 538.4C424.91 536.133 419.91 535 413.644 535C409.51 535 405.377 535.6 401.244 536.8C397.244 537.867 393.377 539.333 389.644 541.2C386.044 542.933 382.71 544.733 379.644 546.6L373.244 535.4C376.444 533.267 380.31 531.133 384.844 529C389.51 526.733 394.51 524.933 399.844 523.6C405.177 522.133 410.71 521.4 416.444 521.4C425.377 521.4 432.71 523.067 438.444 526.4C444.31 529.733 448.644 534.4 451.444 540.4C454.377 546.267 455.844 553.267 455.844 561.4V621H442.444L441.044 607.8H440.444C435.11 612.067 429.11 615.733 422.444 618.8C415.777 621.867 408.977 623.4 402.044 623.4ZM406.444 610.2C412.044 610.2 417.577 608.933 423.044 606.4C428.51 603.867 433.977 600.333 439.444 595.8V570.2C425.577 571.4 414.644 573.067 406.644 575.2C398.777 577.333 393.177 580.067 389.844 583.4C386.644 586.6 385.044 590.333 385.044 594.6C385.044 598.2 386.044 601.2 388.044 603.6C390.044 605.867 392.644 607.533 395.844 608.6C399.177 609.667 402.71 610.2 406.444 610.2ZM526.966 623.4C514.299 623.4 504.099 619 496.366 610.2C488.632 601.267 484.766 588.733 484.766 572.6C484.766 562.067 486.832 553 490.966 545.4C495.232 537.667 500.699 531.733 507.366 527.6C514.166 523.467 521.366 521.4 528.966 521.4C534.699 521.4 539.899 522.533 544.566 524.8C549.366 526.933 553.832 530 557.966 534H558.566L557.766 516V478.6H574.166V621H560.566L559.166 608.2H558.566C554.699 612.333 549.966 615.933 544.366 619C538.899 621.933 533.099 623.4 526.966 623.4ZM530.366 609.6C535.166 609.6 539.832 608.4 544.366 606C548.899 603.467 553.366 599.8 557.766 595V546.6C553.366 542.467 549.032 539.533 544.766 537.8C540.632 536.067 536.432 535.2 532.166 535.2C526.566 535.2 521.432 536.8 516.766 540C512.232 543.067 508.566 547.4 505.766 553C503.099 558.467 501.766 564.933 501.766 572.4C501.766 584 504.299 593.133 509.366 599.8C514.432 606.333 521.432 609.6 530.366 609.6ZM655.888 621V537.2H610.688V523.8H672.288V621H655.888ZM662.288 503.4C658.554 503.4 655.421 502.267 652.888 500C650.354 497.6 649.088 494.467 649.088 490.6C649.088 486.733 650.354 483.667 652.888 481.4C655.421 479 658.554 477.8 662.288 477.8C666.021 477.8 669.154 479 671.688 481.4C674.221 483.667 675.488 486.733 675.488 490.6C675.488 494.467 674.221 497.6 671.688 500C669.154 502.267 666.021 503.4 662.288 503.4ZM778.609 623.4C768.876 623.4 760.009 621.4 752.009 617.4C744.143 613.4 737.876 607.6 733.209 600C728.543 592.267 726.209 583 726.209 572.2C726.209 561.667 728.543 552.6 733.209 545C737.876 537.4 743.943 531.6 751.409 527.6C759.009 523.467 767.143 521.4 775.809 521.4C785.143 521.4 793.076 523.333 799.609 527.2C806.276 530.933 811.343 536.2 814.809 543C818.409 549.8 820.209 557.8 820.209 567C820.209 568.867 820.143 570.667 820.009 572.4C819.876 574.133 819.676 575.667 819.409 577H737.209V564.2H809.609L805.409 568.8C805.409 557.333 802.743 548.733 797.409 543C792.209 537.267 785.143 534.4 776.209 534.4C770.209 534.4 764.609 535.867 759.409 538.8C754.343 541.733 750.276 546 747.209 551.6C744.143 557.2 742.609 564.067 742.609 572.2C742.609 580.6 744.276 587.6 747.609 593.2C750.943 598.8 755.476 603.067 761.209 606C766.943 608.8 773.409 610.2 780.609 610.2C786.476 610.2 791.743 609.4 796.409 607.8C801.209 606.067 805.809 603.8 810.209 601L816.209 611.8C811.409 615 805.876 617.733 799.609 620C793.476 622.267 786.476 623.4 778.609 623.4ZM851.131 621V523.8H864.731L866.131 540.4H866.931C871.998 534.933 877.465 530.4 883.331 526.8C889.198 523.2 895.931 521.4 903.531 521.4C914.998 521.4 923.465 524.733 928.931 531.4C934.398 538.067 937.131 547.8 937.131 560.6V621H920.731V562.8C920.731 553.6 918.998 546.8 915.531 542.4C912.065 537.867 906.331 535.6 898.331 535.6C892.598 535.6 887.465 537.067 882.931 540C878.398 542.933 873.265 547.333 867.531 553.2V621H851.131ZM1031.25 623.4C1021.79 623.4 1014.32 621.733 1008.85 618.4C1003.39 614.933 999.453 610.2 997.053 604.2C994.786 598.2 993.653 591.2 993.653 583.2V537.2H966.253V524.8L994.253 523.8L996.453 492.6H1010.05V523.8H1057.85V537.2H1010.05V583.4C1010.05 589.133 1010.79 594 1012.25 598C1013.72 602 1016.25 605 1019.85 607C1023.45 609 1028.39 610 1034.65 610C1039.32 610 1043.52 609.6 1047.25 608.8C1050.99 608 1054.59 606.933 1058.05 605.6L1061.65 617.6C1057.25 619.2 1052.59 620.533 1047.65 621.6C1042.85 622.8 1037.39 623.4 1031.25 623.4Z" fill="white"/>
<circle cx="1682" cy="879" r="92" fill="white"/>
<path d="M1680.7 914.2C1676.77 914.2 1673.33 913.567 1670.4 912.3C1667.47 910.967 1664.97 909.367 1662.9 907.5L1667.5 902.3C1669.1 903.833 1671 905.067 1673.2 906C1675.47 906.933 1677.8 907.4 1680.2 907.4C1683.67 907.4 1686.87 906.5 1689.8 904.7C1692.73 902.833 1695.1 899.833 1696.9 895.7C1698.7 891.5 1699.6 885.833 1699.6 878.7C1699.6 873.433 1698.93 869.033 1697.6 865.5C1696.33 861.9 1694.47 859.167 1692 857.3C1689.53 855.433 1686.53 854.5 1683 854.5C1680.47 854.5 1678.17 855.1 1676.1 856.3C1674.1 857.433 1672.5 859.067 1671.3 861.2C1670.1 863.267 1669.5 865.7 1669.5 868.5C1669.5 872.833 1670.67 876.167 1673 878.5C1675.33 880.833 1678.7 882 1683.1 882C1685.63 882 1688.37 881.333 1691.3 880C1694.23 878.6 1697.07 876.267 1699.8 873L1700.1 879.5C1697.5 882.167 1694.57 884.3 1691.3 885.9C1688.1 887.433 1684.83 888.2 1681.5 888.2C1677.57 888.2 1674.1 887.467 1671.1 886C1668.17 884.533 1665.87 882.333 1664.2 879.4C1662.53 876.467 1661.7 872.833 1661.7 868.5C1661.7 864.433 1662.67 860.867 1664.6 857.8C1666.6 854.667 1669.2 852.267 1672.4 850.6C1675.67 848.867 1679.17 848 1682.9 848C1686.43 848 1689.67 848.633 1692.6 849.9C1695.53 851.167 1698.1 853.1 1700.3 855.7C1702.57 858.233 1704.3 861.433 1705.5 865.3C1706.77 869.1 1707.4 873.567 1707.4 878.7C1707.4 885.1 1706.67 890.567 1705.2 895.1C1703.73 899.633 1701.73 903.3 1699.2 906.1C1696.73 908.9 1693.87 910.967 1690.6 912.3C1687.4 913.567 1684.1 914.2 1680.7 914.2Z" fill="black"/>
</svg>
